<?xml version="1.0" encoding="UTF-8" standalone="no"?>
<!DOCTYPE svg PUBLIC "-//W3C//DTD SVG 1.1//EN" "http://www.w3.org/Graphics/SVG/1.1/DTD/svg11.dtd">
<svg width="100%" height="100%" viewBox="0 0 225 225" version="1.1" xmlns="http://www.w3.org/2000/svg" xmlns:xlink="http://www.w3.org/1999/xlink" xml:space="preserve" xmlns:serif="http://www.serif.com/" style="fill-rule:evenodd;clip-rule:evenodd;stroke-linejoin:round;stroke-miterlimit:2;">
    <g transform="matrix(1,0,0,1,-980.3,-225)">
        <g id="Artboard3" transform="matrix(1,0,0,1,256.453,2.84217e-14)">
            <rect x="723.846" y="225" width="225" height="225" style="fill:none;"/>
            <clipPath id="_clip1">
                <rect x="723.846" y="225" width="225" height="225"/>
            </clipPath>
            <g clip-path="url(#_clip1)">
                <g id="final-outline-split" serif:id="final outline split" transform="matrix(0.5,0,0,0.5,723.846,225)">
                    <g id="gray-background" serif:id="gray background" transform="matrix(1.30994,0,0,1.30994,-132.949,-78.475)">
                        <path d="M273.255,67.541C363.841,67.541 437.385,141.085 437.385,231.67C437.385,322.256 363.841,395.8 273.255,395.8C182.67,395.8 109.126,322.256 109.126,231.67C109.126,141.085 182.67,67.541 273.255,67.541ZM212.689,277.303C186.876,307.27 160.411,338.054 160.411,338.054C159.461,339.16 159.243,340.718 159.855,342.041C160.467,343.364 161.795,344.209 163.252,344.201L220.546,343.902C221.587,343.897 222.578,343.455 223.279,342.685C223.279,342.685 245.611,318.132 273.255,287.48C300.899,318.132 323.232,342.685 323.232,342.685C323.932,343.455 324.924,343.897 325.965,343.902L383.258,344.201C384.716,344.209 386.044,343.364 386.655,342.041C387.267,340.718 387.05,339.16 386.099,338.054C386.099,338.054 359.632,307.267 333.821,277.303L353.145,277.303C358.767,277.303 363.332,272.738 363.332,267.116L363.332,219.576C363.332,213.953 358.767,209.389 353.145,209.389L337.771,209.389C357.394,177.508 356.161,159.917 356.368,154.918C356.374,154.759 356.371,154.601 356.358,154.446C356.366,154.342 356.371,154.236 356.371,154.129C356.371,113.15 319.239,79.655 273.255,79.655C227.271,79.655 190.139,113.15 190.139,154.129C190.139,154.236 190.144,154.342 190.153,154.446C190.14,154.601 190.136,154.759 190.143,154.918C190.349,159.917 189.117,177.509 208.74,209.389L188.133,209.389C182.511,209.389 177.946,213.953 177.946,219.576L177.946,267.116C177.946,272.738 182.511,277.303 188.133,277.303L212.689,277.303ZM273.269,207.545C260.115,192.227 243.001,170.638 237.006,152.936C233.929,143.852 231.826,134.707 230.999,126.303C243.082,119.075 257.622,114.866 273.255,114.866C288.889,114.866 303.428,119.075 315.512,126.303C314.684,134.707 312.581,143.852 309.504,152.936C303.512,170.628 286.47,192.202 273.269,207.545Z" style="fill:rgb(35,31,32);"/>
                    </g>
                    <g id="black-ribbon-portion" serif:id="black ribbon portion" transform="matrix(1,0,0,1,-3.69166,-8.89193)">
                        <path d="M294.207,89.306C294.442,82.559 294.037,76.248 292.928,70.602C295.921,71.249 298.866,71.816 301.343,72.588C309.548,80.411 316.166,89.564 320.733,99.648C313.749,97.302 301.526,92.879 295.394,89.926C294.985,89.728 294.58,89.514 294.207,89.306ZM239.373,204.704C240.749,203.072 242.147,201.396 243.56,199.682C244.435,199.517 245.422,199.365 246.496,199.22C255.49,198.004 270.23,197.326 277.493,194.972C286.511,192.05 301.233,189.854 311.082,188.823C308.393,193.779 305.267,199.071 301.633,204.704L239.373,204.704ZM154.887,302.181C157.337,299.337 159.786,296.494 162.221,293.668L170.955,293.668C169.689,294.274 168.471,294.87 167.307,295.446C163.853,297.155 159.275,299.682 154.887,302.181ZM254.255,186.267C259.97,178.826 265.582,171.014 270.554,163.204C290.847,160.702 309.776,163.68 320.803,167.911C319.341,171.746 317.569,175.893 315.42,180.358C309.838,179.634 298.151,178.485 286.184,179.566C276.476,180.442 263.142,184.095 254.818,186.132C254.63,186.178 254.443,186.223 254.255,186.267ZM105.943,359.048C108.452,356.13 111.169,352.972 114.05,349.623C117.975,347.601 122.485,345.001 126.102,341.939C128.013,340.322 139.597,335.134 151.66,330.141C154.841,328.824 159.724,325.454 162.782,324.111C174.878,318.796 210.516,302.63 215.86,301.427C217.119,301.143 218.992,301.016 220.996,300.976C211.639,311.35 202.755,321.183 194.73,330.053C194.097,330.298 193.359,330.553 192.536,330.824C187.508,332.476 179.554,334.427 172.266,336.465C158.254,340.38 142.204,343.959 136.993,346.125C130.632,348.77 118.902,352.994 111.725,356.26C109.787,357.142 107.605,358.158 105.943,359.048ZM289.929,118.412C291.083,113.709 292.02,109.054 292.724,104.506C305.191,104.754 319.032,108.084 324.446,109.515C325.794,113.967 326.756,118.56 327.3,123.265C322.183,121.576 313.603,119.581 305.233,118.616C299.693,117.977 294.247,117.804 289.929,118.412ZM281.253,144.078C282.886,140.601 284.289,137.19 285.41,133.881C285.713,132.986 286.009,132.09 286.298,131.194C301.749,129.152 319.659,133.641 327.745,135.97C327.661,138.78 327.431,142.813 326.47,148.12C306.485,149.355 290.188,147.766 281.253,144.078ZM175.679,66.301C177.966,59.801 181.742,54.857 187.532,52.434C187.607,52.402 187.681,52.367 187.755,52.334C200.081,46.913 214.112,44.509 228.692,44.509C243.271,44.509 257.302,46.913 269.628,52.334C269.703,52.367 269.776,52.402 269.852,52.434C270.667,52.775 271.442,53.167 272.179,53.605C262.831,57.87 243.479,66.787 235.126,71.304C232.997,71.193 230.852,71.137 228.692,71.137C212.921,71.137 197.933,74.148 184.408,79.553C185.369,78.519 186.405,77.424 187.507,76.287C190.878,72.806 195.648,69.133 198.604,65.238C202.053,60.694 209.478,55.436 210.515,54.174L210.894,53.543L211.015,52.846L210.961,52.465L210.795,52.052L210.52,51.687L210.198,51.431L209.538,51.151C209.314,51.091 209.035,51.045 208.703,51.025C207.849,50.975 206.483,51.106 204.855,51.397C201.325,52.029 196.463,53.393 193.168,54.852C191.565,55.562 190.309,56.325 189.618,57.019C186.933,59.721 184.125,61.807 180.476,64.54C179.436,65.319 178.165,66.1 175.88,66.281C175.812,66.287 175.745,66.293 175.679,66.301ZM238.347,303.149C237.322,302.012 236.291,300.869 235.254,299.719C237.059,297.717 238.876,295.699 240.705,293.668L289.99,293.668C292.163,293.942 294.135,294.209 295.836,294.45C297.647,296.552 299.465,298.663 301.286,300.776C289.592,298.795 272.318,296.748 262.949,297.552C248.617,298.781 242.373,301.226 239.294,302.695C238.969,302.849 238.644,303.006 238.347,303.149ZM312.83,314.181C318.47,320.732 324.014,327.172 329.291,333.304C327.343,332.47 325.555,331.736 324.14,331.208C320.057,329.686 311.606,331.111 306.821,333.34L306.4,333.578L306.018,333.893L305.696,334.276L305.455,334.705C305.158,335.369 305.11,336.228 305.429,337.187C306.195,339.487 309.49,342.78 313.091,343.537C323.093,345.641 330.779,345.98 342.6,354.395C347.774,358.077 352.511,365.771 355.526,371.461L318.972,371.271C315.662,366.939 308.021,356.53 294.767,348.453C285.925,343.065 278.158,342.021 273.484,342.018C267.606,335.528 261.017,328.247 253.934,320.411C265.651,319.479 293.724,316.022 300.232,314.836C303.893,314.169 308.79,314.089 312.83,314.181ZM137.847,97.121C139.713,93.349 141.87,89.715 144.292,86.243C148.037,88.485 152.539,91.866 158.719,94.765L159.376,94.929L160.039,94.835L160.567,94.546L160.948,94.148C161.206,93.794 161.576,92.695 162.089,91.311C162.363,90.571 162.703,89.717 163.163,88.907C163.477,98.984 165.228,110.047 168.194,121.322C167.394,120.397 166.593,119.514 165.808,118.702C163.638,116.457 161.553,114.75 159.911,114.031C151.472,110.333 143.171,102.969 138.572,97.928C138.319,97.651 138.077,97.381 137.847,97.121ZM129.837,125.747C130.118,122.375 130.614,119.058 131.313,115.804C143.815,125.015 165.276,135.022 173.684,138.484C175.466,142.91 177.685,147.481 180.227,152.117C172.295,149.685 161.395,145.937 151.496,141.13C143.416,137.207 132.843,129.185 129.837,125.747ZM191.951,170.979C194.561,174.783 197.282,178.559 200.052,182.263C199.735,182.582 199.412,182.93 199.086,183.301C197.511,185.093 195.724,187.448 193.801,188.46C191.533,189.652 186.685,190.655 183.667,190.593C183.175,190.582 182.558,190.467 182.279,190.41C182.244,190.162 182.39,189.969 182.517,189.798C182.737,189.502 182.977,189.233 183.166,188.977C183.331,188.754 183.467,188.534 183.57,188.319L183.786,187.677L183.825,186.996L183.648,186.287L183.425,185.896L183.023,185.458C182.529,185.008 181.291,184.153 179.553,183.058C173.055,178.966 159.188,171.113 153.395,168.024C151.727,167.135 150.619,166.633 150.391,166.582C148.405,166.144 146.829,165.974 145.674,166.15C144.528,166.324 143.683,166.804 143.087,167.556C142.526,168.262 142.163,169.271 142.155,170.701C142.153,171.118 142.327,171.894 142.751,172.886C143.475,174.58 144.943,177.209 146.699,179.774C149.534,183.912 157.105,191.798 157.432,192.234C158.939,194.242 163.244,196.553 165.155,197.111C167.218,197.713 167.965,200.378 168.054,200.724C167.84,201.579 167.063,202.732 166.095,203.991C165.914,204.227 165.725,204.465 165.529,204.704L155.749,204.704C140.253,180.683 133.998,162.866 131.436,150.778C148.281,158.079 179.424,167.343 191.951,170.979ZM206.68,190.886C209.205,194.088 211.729,197.203 214.208,200.201C213.955,200.356 213.692,200.52 213.421,200.693C211.793,201.733 209.808,203.114 207.605,204.704L187.564,204.704C188.882,203.642 190.201,202.618 191.491,201.644C198.514,196.34 204.706,192.449 205.525,191.638C205.717,191.447 206.157,191.173 206.68,190.886Z"/>
                    </g>
                    <g id="white-ribbon-portion" serif:id="white ribbon portion" transform="matrix(1,0,0,1,-3.69166,-8.89193)">
                        <path d="M169.691,204.704C170.593,203.358 171.188,202.122 171.36,201.204C171.411,200.931 171.415,200.17 171.134,199.21C170.618,197.445 169.181,194.813 166.089,193.911C164.619,193.481 161.258,191.779 160.098,190.233C159.774,189.801 152.259,181.992 149.449,177.89C148.06,175.862 146.861,173.794 146.127,172.26C145.801,171.579 145.524,170.76 145.489,170.654C145.491,170.169 145.496,169.809 145.723,169.601C145.966,169.377 146.354,169.401 146.838,169.412C147.592,169.429 148.5,169.581 149.564,169.814C149.758,169.907 150.754,170.394 151.827,170.966C157.574,174.03 171.33,181.819 177.776,185.879C178.658,186.434 179.542,187.044 180.121,187.452C179.896,187.732 179.668,188.031 179.479,188.353C178.861,189.405 178.556,190.655 179.446,192.259L179.865,192.811L180.59,193.334C181.246,193.676 182.299,193.898 183.598,193.925C187.101,193.997 192.72,192.794 195.352,191.41C197.59,190.233 199.758,187.585 201.59,185.501C201.757,185.311 201.92,185.127 202.081,184.951C202.926,186.061 203.774,187.163 204.623,188.257C203.969,188.65 203.428,189.023 203.179,189.27C202.381,190.061 196.324,193.817 189.482,198.984C187.143,200.751 184.715,202.678 182.364,204.704L169.691,204.704ZM213.396,204.704C214.509,203.947 215.509,203.3 216.363,202.792C216.901,203.436 217.437,204.073 217.969,204.704L213.396,204.704ZM227.584,293.668C226.755,294.588 225.929,295.504 225.106,296.417C225.08,296.446 225.055,296.474 225.029,296.503L223.979,297.668C220.726,297.628 217.168,297.715 215.127,298.175C209.725,299.392 173.671,315.686 161.442,321.059C158.4,322.395 153.548,325.752 150.385,327.061C137.883,332.235 125.928,337.719 123.949,339.395C122.947,340.243 121.873,341.053 120.762,341.822C129.208,332.006 138.65,321.036 148.264,309.872C154.126,306.421 163.029,301.282 168.786,298.433C171.835,296.924 175.27,295.266 178.973,293.668L227.584,293.668ZM292.113,67.044C291.862,66.089 291.588,65.155 291.291,64.243C292.932,65.427 294.529,66.658 296.08,67.932C294.772,67.647 293.438,67.359 292.113,67.044ZM101.592,364.106C102.959,362.516 104.413,360.826 105.943,359.048C107.605,358.158 109.787,357.142 111.725,356.26C108.282,357.827 105.841,359.307 105.145,360.258C104.616,360.98 104.194,361.712 103.758,362.378C103.328,363.034 102.92,363.639 102.161,363.916C101.985,363.981 101.795,364.044 101.592,364.106ZM190.238,335.017C173.702,353.287 161.488,366.732 157.453,371.171C157.453,371.171 95.236,371.496 95.236,371.496C96.051,370.549 96.929,369.528 97.865,368.439C99.13,368.235 100.461,367.95 101.532,367.558C102.796,367.095 103.663,366.277 104.406,365.248C104.951,364.494 105.423,363.607 106.06,362.738C106.225,362.512 106.59,362.281 107.067,361.984C108.092,361.344 111.343,360.096 113.105,359.294C120.253,356.041 131.938,351.838 138.273,349.203C143.427,347.06 159.306,343.548 173.163,339.675C179.045,338.031 185.357,336.44 190.238,335.017ZM293.199,101.184C293.565,98.393 293.84,95.649 294.02,92.964C301.168,96.394 316.24,101.722 322.441,103.709C322.705,104.389 322.96,105.072 323.206,105.76C316.765,104.153 304.485,101.475 293.199,101.184ZM246.707,195.83C248.148,194.05 249.597,192.236 251.047,190.394C252.312,190.149 253.857,189.799 255.61,189.37C263.805,187.364 276.927,183.749 286.484,182.886C297.408,181.899 308.092,182.821 313.86,183.52C313.565,184.104 313.264,184.692 312.957,185.286C303.031,186.221 286.375,188.591 276.466,191.801C269.515,194.053 255.576,194.693 246.707,195.83ZM272.802,159.599C275.373,155.388 277.733,151.193 279.797,147.075C288.934,150.865 305.473,152.669 325.791,151.499C324.942,155.36 323.718,159.784 321.951,164.786C311,160.618 292.672,157.595 272.802,159.599ZM287.385,127.712C287.967,125.782 288.515,123.854 289.028,121.931C293.224,121.058 298.982,121.251 304.851,121.927C313.877,122.968 323.174,125.199 327.633,126.887C327.757,128.683 327.82,130.493 327.82,132.317C327.82,132.405 327.822,132.491 327.827,132.577C319.712,130.293 302.596,126.133 287.385,127.712ZM176.985,82.829C175.581,83.51 174.195,84.217 172.829,84.951C172.878,80.284 173.303,75.895 174.143,71.881C174.251,71.363 174.367,70.851 174.489,70.347C174.886,70.01 175.405,69.663 176.144,69.604C179.29,69.355 181.041,68.281 182.474,67.208C186.272,64.364 189.187,62.181 191.982,59.37C192.66,58.688 194.132,58.012 195.892,57.334C198.532,56.318 201.804,55.406 204.492,54.86C201.725,57.191 197.978,60.549 195.949,63.223C193.068,67.018 188.398,70.575 185.112,73.967C181.679,77.512 178.866,80.66 176.985,82.829ZM275.222,55.871C279.305,59.614 281.842,65.2 283.24,71.881C284.08,75.895 284.505,80.284 284.554,84.951C271.634,78.015 256.966,73.404 241.282,71.783C251.265,66.763 267.953,59.158 275.222,55.871ZM304.709,304.751C306.458,306.781 308.204,308.809 309.945,310.831C306.417,310.838 302.629,311.011 299.634,311.557C292.593,312.84 259.968,316.839 251.1,317.274C247.719,313.532 244.236,309.675 240.673,305.726C243.65,304.317 249.648,302.038 263.233,300.873C273.549,299.988 293.719,302.649 304.709,304.751ZM352.701,360.513C356.383,364.793 359.578,368.509 362.147,371.496L359.249,371.481C357.621,368.328 355.351,364.28 352.701,360.513ZM314.762,371.249L299.93,371.171C296.716,367.635 288.312,358.384 276.667,345.532C280.88,345.976 286.641,347.405 293.033,351.3C304.02,357.995 310.992,366.371 314.762,371.249ZM334.339,339.17C338.606,344.129 342.647,348.826 346.362,353.143C345.759,352.608 345.149,352.117 344.533,351.679C332.201,342.901 324.211,342.469 313.776,340.275C312.008,339.904 310.345,338.642 309.339,337.387C309.046,337.02 308.789,336.487 308.65,336.172C311.139,335.09 314.583,334.23 317.701,333.958C319.747,333.78 321.646,333.836 322.975,334.331C325.827,335.395 330.215,337.309 334.339,339.17ZM132.157,112.27C133.231,108.195 134.626,104.231 136.315,100.399C141.192,105.692 149.821,113.25 158.574,117.084C160.119,117.761 162.072,119.561 164.137,121.785C166.339,124.157 168.629,127.022 170.617,129.723C171.052,131.109 171.504,132.496 171.974,133.881C172.008,133.983 172.043,134.086 172.079,134.188C162.219,129.908 143.026,120.647 132.157,112.27ZM130.684,146.795C129.541,139.878 129.657,135.304 129.559,132.948C129.556,132.876 129.552,132.805 129.546,132.734C129.558,132.597 129.564,132.458 129.564,132.317C129.564,131.593 129.573,130.87 129.593,130.149C134.251,134.334 143.019,140.72 150.04,144.129C161.587,149.736 174.475,153.929 182.599,156.306C184.607,159.746 186.771,163.208 189.046,166.66C174.231,162.311 145.342,153.52 130.684,146.795ZM146.222,83.586C151.452,76.659 157.764,70.43 164.941,65.087C165.17,65.311 165.401,65.531 165.63,65.745C165.241,67.082 164.898,68.462 164.601,69.885C163.694,74.217 163.213,78.955 163.127,83.991L163.064,84.022C160.964,85.544 159.717,88.12 158.963,90.153C158.857,90.438 158.747,90.741 158.645,91.025C153.516,88.457 149.565,85.644 146.222,83.586Z" style="fill:white;"/>
                    </g>
                    <g id="ceil-blue-bakground" serif:id="ceil blue bakground" transform="matrix(1,0,0,0.899255,-2.27374e-13,28.6897)">
                        <path d="M332.995,200.685L332.995,269.937C332.995,271.989 331.497,273.656 329.651,273.656L113.495,273.656C111.649,273.656 110.15,271.989 110.15,269.937L110.15,200.685C110.15,198.632 111.649,196.966 113.495,196.966L329.651,196.966C331.497,196.966 332.995,198.632 332.995,200.685ZM184.029,202.321C183.109,202.321 182.362,203.151 182.362,204.175L182.362,266.447C182.362,267.471 183.109,268.301 184.029,268.301L204.91,268.301C208.452,268.301 212.064,267.643 215.745,266.32C219.444,264.989 222.81,262.979 225.842,260.288C228.894,257.579 231.389,254.158 233.321,250.017C235.253,245.876 236.237,240.977 236.237,235.311C236.237,229.74 235.387,224.9 233.717,220.784C232.032,216.63 229.779,213.184 226.971,210.435C224.167,207.691 220.943,205.647 217.298,204.306C213.702,202.983 209.968,202.321 206.096,202.321L184.029,202.321ZM201.43,254.567L195.662,254.567L195.662,216.055L203.091,216.055C205.987,216.055 208.646,216.425 211.067,217.174C213.394,217.895 215.412,219.008 217.115,220.528C218.783,222.018 220.08,223.971 221.02,226.375C221.993,228.865 222.463,231.846 222.463,235.311C222.463,238.798 221.942,241.767 220.856,244.208C219.794,246.598 218.345,248.545 216.503,250.042C214.609,251.582 212.384,252.709 209.834,253.438C207.196,254.192 204.394,254.567 201.43,254.567ZM134.199,202.321C133.279,202.321 132.533,203.151 132.533,204.175L132.533,266.447C132.533,267.471 133.279,268.301 134.199,268.301L144.165,268.301C145.086,268.301 145.832,267.471 145.832,266.447L145.832,241.914C145.832,241.914 150.454,241.914 150.454,241.914L162.951,267.336C163.243,267.931 163.804,268.301 164.414,268.301L176.436,268.301C177.037,268.301 177.591,267.941 177.886,267.36C178.182,266.779 178.174,266.065 177.865,265.493L164.217,240.225C167.685,239.23 170.427,237.323 172.467,234.549C174.941,231.182 176.204,227.015 176.204,222.03C176.204,218.14 175.532,214.939 174.249,212.411C172.948,209.845 171.2,207.808 169.011,206.295C166.898,204.834 164.487,203.796 161.774,203.193C159.165,202.612 156.459,202.321 153.657,202.321L134.199,202.321ZM151.917,228.708L145.832,228.708C145.832,228.708 145.832,215.527 145.832,215.527L152.787,215.527C153.989,215.527 155.229,215.611 156.507,215.778C157.671,215.931 158.734,216.243 159.693,216.726C160.517,217.14 161.184,217.762 161.693,218.59C162.214,219.436 162.431,220.561 162.431,221.942C162.431,223.524 162.205,224.773 161.636,225.654C161.079,226.518 160.351,227.158 159.455,227.578C158.418,228.065 157.278,228.368 156.034,228.496C154.662,228.637 153.289,228.708 151.917,228.708ZM316.586,263.508C317.128,263.186 317.467,262.557 317.467,261.873L317.467,230.034C317.467,229.01 316.721,228.18 315.801,228.18L294.366,228.18C293.445,228.18 292.699,229.01 292.699,230.034L292.699,240.06C292.699,241.084 293.445,241.914 294.366,241.914L304.168,241.914C304.168,241.914 304.168,253.641 304.168,253.641C302.776,254.413 301.225,254.996 299.518,255.399C297.385,255.901 295.114,256.15 292.705,256.15C290.057,256.15 287.66,255.624 285.518,254.554C283.384,253.487 281.549,252.023 280.014,250.156C278.47,248.278 277.28,246.048 276.435,243.472C275.576,240.851 275.152,237.983 275.152,234.871C275.152,231.999 275.574,229.315 276.427,226.822C277.271,224.355 278.463,222.194 280.006,220.343C281.539,218.506 283.372,217.07 285.504,216.031C287.65,214.985 290.052,214.472 292.705,214.472C295.349,214.472 297.858,214.959 300.232,215.939C302.561,216.9 304.544,218.255 306.177,220.017C306.833,220.725 307.879,220.713 308.522,219.991L315.878,211.723C316.199,211.362 316.373,210.87 316.359,210.362C316.345,209.854 316.144,209.375 315.803,209.037C312.654,205.91 309.082,203.739 305.09,202.519C301.208,201.334 297.054,200.738 292.626,200.738C288.083,200.738 283.916,201.561 280.121,203.194C276.287,204.843 272.987,207.196 270.216,210.246C267.449,213.292 265.279,216.972 263.713,221.293C262.161,225.576 261.378,230.336 261.378,235.575C261.378,240.701 262.163,245.362 263.718,249.562C265.284,253.791 267.454,257.411 270.223,260.427C272.991,263.443 276.289,265.78 280.121,267.428C283.916,269.061 288.083,269.884 292.626,269.884C301.458,269.884 309.444,267.752 316.586,263.508ZM243.825,202.321C242.904,202.321 242.158,203.151 242.158,204.175L242.158,266.447C242.158,267.471 242.904,268.301 243.825,268.301L253.79,268.301C254.711,268.301 255.457,267.471 255.457,266.447L255.457,204.175C255.457,203.151 254.711,202.321 253.79,202.321L243.825,202.321Z" style="fill:rgb(150,158,189);"/>
                    </g>
                    <g id="text-background" serif:id="text background" transform="matrix(1.58189,0,0,1.58189,33.3507,-117.025)">
                        <path d="M64.806,209.235L76.052,209.235C77.681,209.235 79.253,209.386 80.77,209.689C82.222,209.98 83.515,210.473 84.646,211.176C85.729,211.849 86.591,212.757 87.234,213.899C87.89,215.062 88.198,216.542 88.198,218.331C88.198,220.63 87.58,222.562 86.311,224.114C85.054,225.653 83.244,226.562 80.907,226.887C80.556,226.936 80.254,227.158 80.101,227.477C79.949,227.796 79.967,228.17 80.149,228.473L88.59,242.527L83.477,242.527C83.477,242.527 75.576,228.076 75.576,228.076C75.392,227.738 75.037,227.527 74.652,227.527L70.052,227.527C69.47,227.527 68.998,227.999 68.998,228.581L68.998,242.527C68.998,242.527 64.806,242.527 64.806,242.527C64.806,242.527 64.806,209.235 64.806,209.235ZM74.952,224.235C75.884,224.235 76.817,224.191 77.749,224.105C78.763,224.011 79.692,223.783 80.537,223.427C81.47,223.032 82.227,222.43 82.808,221.62C83.381,220.822 83.706,219.715 83.706,218.281C83.706,216.999 83.409,215.972 82.872,215.186C82.327,214.391 81.616,213.794 80.736,213.396C79.942,213.037 79.064,212.798 78.1,212.685C77.208,212.58 76.342,212.527 75.502,212.527L70.052,212.527C69.47,212.527 68.998,212.999 68.998,213.581L68.998,223.181C68.998,223.763 69.47,224.235 70.052,224.235L74.952,224.235ZM96.306,209.235L109.202,209.235C111.421,209.235 113.561,209.575 115.621,210.256C117.65,210.927 119.445,211.949 121.006,213.322C122.564,214.693 123.807,216.417 124.742,218.489C125.686,220.583 126.148,223.048 126.148,225.881C126.148,228.726 125.621,231.191 124.542,233.271C123.463,235.35 122.074,237.072 120.37,238.433C118.653,239.803 116.747,240.826 114.653,241.504C112.546,242.185 110.479,242.527 108.452,242.527L96.306,242.527L96.306,209.235ZM106.252,238.935C108.311,238.935 110.257,238.698 112.089,238.226C113.978,237.741 115.621,236.982 117.024,235.957C118.459,234.908 119.593,233.548 120.421,231.873C121.235,230.227 121.656,228.232 121.656,225.881C121.656,223.584 121.286,221.612 120.568,219.961C119.829,218.261 118.799,216.888 117.487,215.834C116.196,214.799 114.672,214.032 112.91,213.541C111.207,213.067 109.338,212.827 107.302,212.827L101.552,212.827C100.97,212.827 100.498,213.299 100.498,213.881L100.498,237.881C100.498,238.463 100.97,238.935 101.552,238.935L106.252,238.935ZM134.106,209.235L138.298,209.235C138.298,209.235 138.298,242.527 138.298,242.527L134.106,242.527C134.106,242.527 134.106,209.235 134.106,209.235ZM177.498,240.341C173.423,242.402 168.89,243.427 163.902,243.427C161.307,243.427 158.925,243.012 156.757,242.173C154.613,241.344 152.764,240.172 151.214,238.653C149.664,237.135 148.453,235.309 147.576,233.18C146.693,231.034 146.256,228.65 146.256,226.031C146.256,223.342 146.694,220.898 147.579,218.7C148.456,216.523 149.668,214.665 151.218,213.13C152.767,211.597 154.614,210.418 156.757,209.589C158.925,208.75 161.307,208.335 163.902,208.335C166.503,208.335 168.943,208.646 171.223,209.272C173.079,209.782 174.769,210.627 176.296,211.806C176.296,211.806 173.155,214.981 173.155,214.981C172.085,214.112 170.849,213.415 169.444,212.893C167.711,212.25 165.881,211.927 163.952,211.927C161.962,211.927 160.164,212.286 158.554,212.991C156.935,213.701 155.544,214.684 154.38,215.94C153.222,217.187 152.325,218.642 151.692,220.306C151.065,221.956 150.748,223.73 150.748,225.631C150.748,227.662 151.064,229.532 151.687,231.242C152.32,232.977 153.217,234.476 154.374,235.742C155.538,237.014 156.927,238.015 158.545,238.742C160.158,239.467 161.959,239.835 163.952,239.835C165.629,239.835 167.21,239.676 168.695,239.362C170.228,239.037 171.588,238.529 172.778,237.844C173.104,237.656 173.306,237.308 173.306,236.931L173.306,228.581C173.306,227.999 172.834,227.527 172.252,227.527L166.056,227.527C166.056,227.527 166.056,223.935 166.056,223.935L177.498,223.935L177.498,240.341Z" style="fill:rgb(35,31,32);"/>
                    </g>
                    <g id="metal-outline" serif:id="metal outline" transform="matrix(1,0,0,1,-3.69166,-8.89193)">
                        <path d="M228.692,8.892C352.873,8.892 453.692,109.711 453.692,233.892C453.692,358.073 352.873,458.892 228.692,458.892C104.511,458.892 3.692,358.073 3.692,233.892C3.692,109.711 104.511,8.892 228.692,8.892ZM228.692,18.892C110.03,18.892 13.692,115.23 13.692,233.892C13.692,352.554 110.03,448.892 228.692,448.892C347.353,448.892 443.692,352.554 443.692,233.892C443.692,115.23 347.353,18.892 228.692,18.892ZM308.03,293.668C341.84,332.919 376.511,373.248 376.511,373.248C377.756,374.696 378.04,376.738 377.239,378.471C376.438,380.204 374.699,381.31 372.789,381.3L297.738,380.909C296.374,380.902 295.076,380.323 294.158,379.314C294.158,379.314 264.903,347.151 228.692,306.999C192.48,347.151 163.226,379.314 163.226,379.314C162.308,380.323 161.009,380.902 159.645,380.909L84.594,381.3C82.685,381.31 80.945,380.204 80.144,378.471C79.343,376.738 79.628,374.696 80.872,373.248C80.872,373.248 115.54,332.923 149.354,293.668L117.187,293.668C109.822,293.668 103.842,287.689 103.842,280.324L103.842,218.049C103.842,210.684 109.822,204.704 117.187,204.704L144.181,204.704C118.476,162.943 120.09,139.899 119.819,133.351C119.81,133.142 119.815,132.935 119.832,132.732C119.821,132.595 119.815,132.457 119.815,132.317C119.815,78.637 168.455,34.76 228.692,34.76C288.928,34.76 337.569,78.637 337.569,132.317C337.569,132.457 337.563,132.595 337.551,132.732C337.568,132.935 337.573,133.142 337.564,133.351C337.294,139.898 338.908,162.943 313.203,204.704L333.343,204.704C340.708,204.704 346.687,210.684 346.687,218.049L346.687,280.324C346.687,287.689 340.708,293.668 333.343,293.668L308.03,293.668ZM289.99,293.668L240.705,293.668C238.876,295.699 237.059,297.717 235.254,299.719C236.291,300.869 237.322,302.012 238.347,303.149C238.644,303.006 238.969,302.849 239.294,302.695C242.373,301.226 248.617,298.781 262.949,297.552C272.318,296.748 289.592,298.795 301.286,300.776C299.465,298.663 297.647,296.552 295.836,294.45C294.135,294.209 292.163,293.942 289.99,293.668ZM187.564,204.704L207.605,204.704C209.808,203.114 211.793,201.733 213.421,200.693C213.692,200.52 213.955,200.356 214.208,200.201C211.729,197.203 209.205,194.088 206.68,190.886C206.157,191.173 205.717,191.447 205.525,191.638C204.706,192.449 198.514,196.34 191.491,201.644C190.201,202.618 188.882,203.642 187.564,204.704ZM276.667,345.532C288.312,358.384 296.716,367.635 299.93,371.171L314.762,371.249C310.992,366.371 304.02,357.995 293.033,351.3C286.641,347.405 280.88,345.976 276.667,345.532ZM170.955,293.668L162.221,293.668C159.786,296.494 157.337,299.337 154.887,302.181C159.275,299.682 163.853,297.155 167.307,295.446C168.471,294.87 169.689,294.274 170.955,293.668ZM240.673,305.726C244.236,309.675 247.719,313.532 251.1,317.274C259.968,316.839 292.593,312.84 299.634,311.557C302.629,311.011 306.417,310.838 309.945,310.831C308.204,308.809 306.458,306.781 304.709,304.751C293.719,302.649 273.549,299.988 263.233,300.873C249.648,302.038 243.65,304.317 240.673,305.726ZM180.227,152.117C177.685,147.481 175.466,142.91 173.684,138.484C165.276,135.022 143.815,125.015 131.313,115.804C130.614,119.058 130.118,122.375 129.837,125.747C132.843,129.185 143.416,137.207 151.496,141.13C161.395,145.937 172.295,149.685 180.227,152.117ZM223.979,297.668L225.029,296.503C225.055,296.474 225.08,296.446 225.106,296.417C225.929,295.504 226.755,294.588 227.584,293.668L178.973,293.668C175.27,295.266 171.835,296.924 168.786,298.433C163.029,301.282 154.126,306.421 148.264,309.872C138.65,321.036 129.208,332.006 120.762,341.822C121.873,341.053 122.947,340.243 123.949,339.395C125.928,337.719 137.883,332.235 150.385,327.061C153.548,325.752 158.4,322.395 161.442,321.059C173.671,315.686 209.725,299.392 215.127,298.175C217.168,297.715 220.726,297.628 223.979,297.668ZM296.08,67.932C294.529,66.658 292.932,65.427 291.291,64.243C291.588,65.155 291.862,66.089 292.113,67.044C293.438,67.359 294.772,67.647 296.08,67.932ZM241.282,71.783C256.966,73.404 271.634,78.015 284.554,84.951C284.505,80.284 284.08,75.895 283.24,71.881C281.842,65.2 279.305,59.614 275.222,55.871C267.953,59.158 251.265,66.763 241.282,71.783ZM174.489,70.347C174.367,70.851 174.251,71.363 174.143,71.881C173.303,75.895 172.878,80.284 172.829,84.951C174.195,84.217 175.581,83.51 176.985,82.829C178.866,80.66 181.679,77.512 185.112,73.967C188.398,70.575 193.068,67.018 195.949,63.223C197.978,60.549 201.725,57.191 204.492,54.86C201.804,55.406 198.532,56.318 195.892,57.334C194.132,58.012 192.66,58.688 191.982,59.37C189.187,62.181 186.272,64.364 182.474,67.208C181.041,68.281 179.29,69.355 176.144,69.604C175.405,69.663 174.886,70.01 174.489,70.347ZM194.73,330.053C202.755,321.183 211.639,311.35 220.996,300.976C218.992,301.016 217.119,301.143 215.86,301.427C210.516,302.63 174.878,318.796 162.782,324.111C159.724,325.454 154.841,328.824 151.66,330.141C139.597,335.134 128.013,340.322 126.102,341.939C122.485,345.001 117.975,347.601 114.05,349.623C109.412,355.014 105.203,359.908 101.592,364.106C101.795,364.044 101.985,363.981 102.161,363.916C102.92,363.639 103.328,363.034 103.758,362.378C104.194,361.712 104.616,360.98 105.145,360.258C105.841,359.307 108.282,357.827 111.725,356.26C118.902,352.994 130.632,348.77 136.993,346.125C142.204,343.959 158.254,340.38 172.266,336.465C179.554,334.427 187.508,332.476 192.536,330.824C193.359,330.553 194.097,330.298 194.73,330.053ZM253.934,320.411C261.017,328.247 267.606,335.528 273.484,342.018C278.158,342.021 285.925,343.065 294.767,348.453C308.021,356.53 315.662,366.939 318.972,371.271L355.526,371.461C352.511,365.771 347.774,358.077 342.6,354.395C330.779,345.98 323.093,345.641 313.091,343.537C309.49,342.78 306.195,339.487 305.429,337.187C305.11,336.228 305.158,335.369 305.455,334.705L305.696,334.276L306.018,333.893L306.4,333.578L306.821,333.34C311.606,331.111 320.057,329.686 324.14,331.208C325.555,331.736 327.343,332.47 329.291,333.304C324.014,327.172 318.47,320.732 312.83,314.181C308.79,314.089 303.893,314.169 300.232,314.836C293.724,316.022 265.651,319.479 253.934,320.411ZM97.865,368.439C96.929,369.528 96.051,370.549 95.236,371.496C95.236,371.496 157.453,371.171 157.453,371.171C161.488,366.732 173.702,353.287 190.238,335.017C185.357,336.44 179.045,338.031 173.163,339.675C159.306,343.548 143.427,347.06 138.273,349.203C131.938,351.838 120.253,356.041 113.105,359.294C111.343,360.096 108.092,361.344 107.067,361.984C106.59,362.281 106.225,362.512 106.06,362.738C105.423,363.607 104.951,364.494 104.406,365.248C103.663,366.277 102.796,367.095 101.532,367.558C100.461,367.95 99.13,368.235 97.865,368.439ZM168.194,121.322C165.228,110.047 163.477,98.984 163.163,88.907C162.703,89.717 162.363,90.571 162.089,91.311C161.576,92.695 161.206,93.794 160.948,94.148L160.567,94.546L160.039,94.835L159.376,94.929L158.719,94.765C152.539,91.866 148.037,88.485 144.292,86.243C141.87,89.715 139.713,93.349 137.847,97.121C138.077,97.381 138.319,97.651 138.572,97.928C143.171,102.969 151.472,110.333 159.911,114.031C161.553,114.75 163.638,116.457 165.808,118.702C166.593,119.514 167.394,120.397 168.194,121.322ZM163.127,83.991C163.213,78.955 163.694,74.217 164.601,69.885C164.898,68.462 165.241,67.082 165.63,65.745C165.401,65.531 165.17,65.311 164.941,65.087C157.764,70.43 151.452,76.659 146.222,83.586C149.565,85.644 153.516,88.457 158.645,91.025C158.747,90.741 158.857,90.438 158.963,90.153C159.717,88.12 160.964,85.544 163.064,84.022L163.127,83.991ZM228.71,202.289C246.002,182.191 268.327,153.93 276.176,130.754C280.206,118.854 282.962,106.876 284.045,95.866C268.217,86.398 249.171,80.885 228.692,80.885C208.213,80.885 189.167,86.398 173.338,95.866C174.422,106.876 177.177,118.854 181.207,130.754C189.061,153.942 211.479,182.224 228.71,202.289ZM172.079,134.188C172.043,134.086 172.008,133.983 171.974,133.881C171.504,132.496 171.052,131.109 170.617,129.723C168.629,127.022 166.339,124.157 164.137,121.785C162.072,119.561 160.119,117.761 158.574,117.084C149.821,113.25 141.192,105.692 136.315,100.399C134.626,104.231 133.231,108.195 132.157,112.27C143.026,120.647 162.219,129.908 172.079,134.188ZM336.687,218.049C336.687,216.203 335.188,214.704 333.343,214.704L117.187,214.704C115.341,214.704 113.842,216.203 113.842,218.049L113.842,280.324C113.842,282.169 115.341,283.668 117.187,283.668L333.343,283.668C335.188,283.668 336.687,282.169 336.687,280.324L336.687,218.049ZM137.891,219.52L157.348,219.52C160.15,219.52 162.856,219.782 165.466,220.304C168.179,220.846 170.59,221.78 172.703,223.093C174.892,224.454 176.639,226.286 177.941,228.594C179.223,230.867 179.896,233.745 179.896,237.243C179.896,241.726 178.633,245.473 176.158,248.501C174.119,250.996 171.376,252.71 167.908,253.605L181.556,276.327C181.866,276.842 181.874,277.484 181.578,278.006C181.282,278.529 180.728,278.852 180.128,278.852L168.105,278.852C167.496,278.852 166.935,278.52 166.643,277.985L154.145,255.124C154.145,255.124 149.524,255.124 149.524,255.124L149.524,277.186C149.524,278.106 148.778,278.852 147.857,278.852L137.891,278.852C136.971,278.852 136.224,278.106 136.224,277.186L136.224,221.187C136.224,220.266 136.971,219.52 137.891,219.52ZM139.558,222.853C139.558,222.853 139.558,275.519 139.558,275.519C139.558,275.519 146.19,275.519 146.19,275.519L146.19,253.457C146.19,252.537 146.937,251.791 147.857,251.791L155.134,251.791C155.743,251.791 156.304,252.123 156.596,252.658C156.596,252.658 169.094,275.519 169.094,275.519L177.182,275.519L163.829,253.287C163.541,252.808 163.513,252.215 163.754,251.71C163.995,251.206 164.474,250.855 165.028,250.778C168.726,250.263 171.588,248.825 173.577,246.391C175.585,243.935 176.563,240.88 176.563,237.243C176.563,234.413 176.075,232.071 175.038,230.231C174.019,228.426 172.656,226.989 170.943,225.924C169.154,224.812 167.109,224.032 164.812,223.572C162.413,223.092 159.925,222.853 157.348,222.853L139.558,222.853ZM155.608,246.582L147.857,246.582C146.937,246.582 146.19,245.836 146.19,244.915L146.19,229.729C146.19,228.808 146.937,228.062 147.857,228.062L156.478,228.062C157.807,228.062 159.177,228.145 160.588,228.311C162.113,228.49 163.503,228.868 164.758,229.436C166.149,230.066 167.275,231.009 168.136,232.268C168.987,233.511 169.456,235.135 169.456,237.164C169.456,239.432 168.943,241.183 168.035,242.446C167.116,243.726 165.92,244.68 164.443,245.304C163.106,245.868 161.637,246.228 160.033,246.377C158.558,246.513 157.083,246.582 155.608,246.582ZM155.608,243.248C156.981,243.248 158.353,243.185 159.726,243.058C160.969,242.943 162.11,242.67 163.146,242.233C164.042,241.854 164.77,241.279 165.328,240.502C165.897,239.71 166.122,238.587 166.122,237.164C166.122,235.923 165.906,234.911 165.385,234.15C164.875,233.405 164.208,232.846 163.384,232.473C162.426,232.04 161.363,231.758 160.199,231.621C158.921,231.471 157.681,231.396 156.478,231.396L149.524,231.396C149.524,231.396 149.524,243.248 149.524,243.248L155.608,243.248ZM187.721,219.52L209.788,219.52C213.66,219.52 217.394,220.116 220.989,221.305C224.635,222.511 227.859,224.349 230.663,226.817C233.471,229.288 235.723,232.387 237.408,236.122C239.078,239.824 239.929,244.177 239.929,249.186C239.929,254.282 238.945,258.687 237.013,262.411C235.081,266.135 232.585,269.211 229.534,271.647C226.502,274.067 223.136,275.875 219.436,277.071C215.756,278.261 212.144,278.852 208.602,278.852L187.721,278.852C186.8,278.852 186.054,278.106 186.054,277.186L186.054,221.187C186.054,220.266 186.8,219.52 187.721,219.52ZM189.387,222.853L189.387,275.519L208.602,275.519C211.809,275.519 215.078,274.977 218.411,273.899C221.724,272.828 224.739,271.209 227.454,269.041C230.15,266.89 232.347,264.166 234.054,260.876C235.76,257.587 236.595,253.687 236.595,249.186C236.595,244.704 235.864,240.805 234.37,237.493C232.891,234.215 230.925,231.488 228.461,229.319C225.992,227.147 223.152,225.531 219.942,224.47C216.683,223.391 213.298,222.853 209.788,222.853L189.387,222.853ZM205.121,269.836L197.687,269.836C196.766,269.836 196.02,269.089 196.02,268.169L196.02,230.203C196.02,229.283 196.766,228.537 197.687,228.537L206.782,228.537C210.003,228.537 212.96,228.916 215.653,229.666C218.441,230.442 220.853,231.655 222.893,233.294C224.969,234.96 226.599,237.132 227.768,239.821C228.904,242.433 229.488,245.553 229.488,249.186C229.488,252.905 228.823,256.062 227.536,258.665C226.226,261.314 224.432,263.465 222.161,265.125C219.942,266.746 217.342,267.947 214.356,268.715C211.457,269.461 208.379,269.836 205.121,269.836ZM205.121,266.502C208.086,266.502 210.888,266.165 213.525,265.487C216.075,264.831 218.3,263.818 220.194,262.433C222.036,261.087 223.485,259.337 224.548,257.187C225.634,254.992 226.155,252.322 226.155,249.186C226.155,246.07 225.685,243.39 224.711,241.15C223.771,238.989 222.475,237.232 220.807,235.893C219.104,234.526 217.086,233.524 214.759,232.877C212.338,232.203 209.678,231.87 206.782,231.87L199.353,231.87L199.353,266.502L205.121,266.502ZM247.516,219.52L257.482,219.52C258.403,219.52 259.149,220.266 259.149,221.187L259.149,277.186C259.149,278.106 258.403,278.852 257.482,278.852L247.516,278.852C246.596,278.852 245.849,278.106 245.849,277.186L245.849,221.187C245.849,220.266 246.596,219.52 247.516,219.52ZM249.183,222.853C249.183,222.853 249.183,275.519 249.183,275.519L255.815,275.519C255.815,275.519 255.815,222.853 255.815,222.853L249.183,222.853ZM320.278,274.543C313.135,278.359 305.15,280.276 296.317,280.276C291.775,280.276 287.607,279.536 283.812,278.068C279.981,276.585 276.683,274.485 273.914,271.772C271.146,269.059 268.976,265.804 267.41,262.001C265.855,258.225 265.069,254.033 265.069,249.423C265.069,244.712 265.853,240.432 267.405,236.581C268.97,232.695 271.141,229.386 273.908,226.646C276.679,223.904 279.979,221.788 283.812,220.305C287.607,218.837 291.775,218.096 296.317,218.096C300.746,218.096 304.9,218.632 308.781,219.698C312.774,220.795 316.346,222.747 319.495,225.559C319.836,225.863 320.037,226.294 320.051,226.751C320.065,227.207 319.891,227.65 319.57,227.975L312.214,235.409C311.571,236.059 310.524,236.07 309.868,235.433C308.236,233.849 306.252,232.63 303.924,231.766C301.55,230.885 299.04,230.446 296.397,230.446C293.744,230.446 291.342,230.908 289.196,231.849C287.064,232.783 285.231,234.074 283.698,235.727C282.154,237.391 280.963,239.334 280.119,241.553C279.266,243.795 278.843,246.208 278.843,248.791C278.843,251.589 279.267,254.168 280.127,256.525C280.971,258.841 282.162,260.847 283.706,262.536C285.241,264.214 287.076,265.531 289.21,266.49C291.352,267.453 293.749,267.926 296.397,267.926C298.805,267.926 301.077,267.702 303.209,267.25C304.917,266.889 306.468,266.364 307.86,265.669C307.86,265.669 307.86,255.124 307.86,255.124L298.058,255.124C297.137,255.124 296.391,254.378 296.391,253.457L296.391,244.44C296.391,243.52 297.137,242.774 298.058,242.774L319.492,242.774C320.413,242.774 321.159,243.52 321.159,244.44L321.159,273.073C321.159,273.688 320.82,274.253 320.278,274.543ZM317.825,272.061L317.826,246.107L299.724,246.107C299.724,246.107 299.724,251.791 299.724,251.791L309.526,251.791C310.447,251.791 311.193,252.537 311.193,253.457L311.193,266.666C311.193,267.262 310.875,267.813 310.358,268.11C308.476,269.194 306.324,269.998 303.9,270.511C301.551,271.009 299.05,271.259 296.397,271.259C293.244,271.259 290.394,270.677 287.843,269.531C285.284,268.381 283.086,266.798 281.246,264.785C279.416,262.783 277.996,260.412 276.995,257.666C276.009,254.961 275.51,252.003 275.51,248.791C275.51,245.784 276.01,242.977 277.003,240.368C278.004,237.736 279.423,235.434 281.254,233.46C283.096,231.474 285.296,229.918 287.858,228.796C290.404,227.68 293.249,227.113 296.397,227.113C299.448,227.113 302.343,227.624 305.084,228.641C307.307,229.466 309.262,230.569 310.954,231.943C310.954,231.943 315.923,226.921 315.923,226.921C313.508,225.056 310.834,223.719 307.898,222.912C304.292,221.922 300.432,221.43 296.317,221.43C292.212,221.43 288.444,222.087 285.015,223.413C281.625,224.725 278.703,226.59 276.253,229.015C273.8,231.443 271.884,234.382 270.497,237.826C269.096,241.304 268.403,245.17 268.403,249.423C268.403,253.567 269.094,257.337 270.492,260.732C271.879,264.101 273.795,266.988 276.247,269.391C278.699,271.793 281.623,273.647 285.015,274.959C288.444,276.286 292.212,276.943 296.317,276.943C304.208,276.943 311.378,275.32 317.825,272.061ZM184.408,79.553C197.933,74.148 212.921,71.137 228.692,71.137C230.852,71.137 232.997,71.193 235.126,71.304C243.479,66.787 262.831,57.87 272.179,53.605C271.442,53.167 270.667,52.775 269.852,52.434C269.776,52.402 269.702,52.369 269.628,52.334C257.136,47.307 243.271,44.509 228.692,44.509C214.112,44.509 200.247,47.307 187.755,52.334C187.682,52.369 187.607,52.402 187.532,52.434C181.742,54.857 177.966,59.801 175.679,66.301C175.745,66.293 175.812,66.287 175.88,66.281C178.165,66.1 179.436,65.319 180.476,64.54C184.125,61.807 186.933,59.721 189.618,57.019C190.309,56.325 191.565,55.562 193.168,54.852C196.463,53.393 201.325,52.029 204.855,51.397C206.483,51.106 207.849,50.975 208.703,51.025C209.035,51.045 209.314,51.091 209.538,51.151L210.198,51.431L210.52,51.687L210.795,52.052L210.961,52.465L211.015,52.846L210.894,53.543L210.515,54.174C209.478,55.436 202.053,60.694 198.604,65.238C195.648,69.133 190.878,72.806 187.507,76.287C186.405,77.424 185.369,78.519 184.408,79.553ZM323.206,105.76C322.96,105.072 322.705,104.389 322.441,103.709C316.24,101.722 301.168,96.394 294.02,92.964C293.84,95.649 293.565,98.393 293.199,101.184C304.485,101.475 316.765,104.153 323.206,105.76ZM327.827,132.577C327.822,132.491 327.82,132.405 327.82,132.317C327.82,130.493 327.757,128.683 327.633,126.887C323.174,125.199 313.877,122.968 304.851,121.927C298.982,121.251 293.224,121.058 289.028,121.931C288.515,123.854 287.967,125.782 287.385,127.712C302.596,126.133 319.712,130.293 327.827,132.577ZM346.362,353.143C342.647,348.826 338.606,344.129 334.339,339.17C330.215,337.309 325.827,335.395 322.975,334.331C321.646,333.836 319.747,333.78 317.701,333.958C314.583,334.23 311.139,335.09 308.65,336.172C308.789,336.487 309.046,337.02 309.339,337.387C310.345,338.642 312.008,339.904 313.776,340.275C324.211,342.469 332.201,342.901 344.533,351.679C345.149,352.117 345.759,352.608 346.362,353.143ZM315.42,180.358C317.569,175.893 319.341,171.746 320.803,167.911C309.776,163.68 290.847,160.702 270.554,163.204C265.582,171.014 259.97,178.826 254.255,186.267C254.443,186.223 254.63,186.178 254.818,186.132C263.142,184.095 276.476,180.442 286.184,179.566C298.151,178.485 309.838,179.634 315.42,180.358ZM129.593,130.149C129.573,130.87 129.564,131.593 129.564,132.317C129.564,132.458 129.558,132.597 129.546,132.734C129.552,132.805 129.556,132.876 129.559,132.948C129.657,135.304 129.541,139.878 130.684,146.795C145.342,153.52 174.231,162.311 189.046,166.66C186.771,163.208 184.607,159.746 182.599,156.306C174.475,153.929 161.587,149.736 150.04,144.129C143.019,140.72 134.251,134.334 129.593,130.149ZM169.691,204.704L182.364,204.704C184.715,202.678 187.143,200.751 189.482,198.984C196.324,193.817 202.381,190.061 203.179,189.27C203.428,189.023 203.969,188.65 204.623,188.257C203.774,187.163 202.926,186.061 202.081,184.951C201.92,185.127 201.757,185.311 201.59,185.501C199.758,187.585 197.59,190.233 195.352,191.41C192.72,192.794 187.101,193.997 183.598,193.925C182.299,193.898 181.246,193.676 180.59,193.334L179.865,192.811L179.446,192.259C178.556,190.655 178.861,189.405 179.479,188.353C179.668,188.031 179.896,187.732 180.121,187.452C179.542,187.044 178.658,186.434 177.776,185.879C171.33,181.819 157.574,174.03 151.827,170.966C150.754,170.394 149.758,169.907 149.564,169.814C148.5,169.581 147.592,169.429 146.838,169.412C146.354,169.401 145.966,169.377 145.723,169.601C145.496,169.809 145.491,170.169 145.489,170.654C145.524,170.76 145.801,171.579 146.127,172.26C146.861,173.794 148.06,175.862 149.449,177.89C152.259,181.992 159.774,189.801 160.098,190.233C161.258,191.779 164.619,193.481 166.089,193.911C169.181,194.813 170.618,197.445 171.134,199.21C171.415,200.17 171.411,200.931 171.36,201.204C171.188,202.122 170.593,203.358 169.691,204.704ZM327.3,123.265C326.756,118.56 325.794,113.967 324.446,109.515C319.032,108.084 305.191,104.754 292.724,104.506C292.02,109.054 291.083,113.709 289.929,118.412C294.247,117.804 299.693,117.977 305.233,118.616C313.603,119.581 322.183,121.576 327.3,123.265ZM320.733,99.648C316.166,89.564 309.548,80.411 301.343,72.588C298.866,71.816 295.921,71.249 292.928,70.602C294.037,76.248 294.442,82.559 294.207,89.306C294.58,89.514 294.985,89.728 295.394,89.926C301.526,92.879 313.749,97.302 320.733,99.648ZM131.436,150.778C133.998,162.866 140.253,180.683 155.749,204.704L165.529,204.704C165.725,204.465 165.914,204.227 166.095,203.991C167.063,202.732 167.84,201.579 168.054,200.724C167.965,200.378 167.218,197.713 165.155,197.111C163.244,196.553 158.939,194.242 157.432,192.234C157.105,191.798 149.534,183.912 146.699,179.774C144.943,177.209 143.475,174.58 142.751,172.886C142.327,171.894 142.153,171.118 142.155,170.701C142.163,169.271 142.526,168.262 143.087,167.556C143.683,166.804 144.528,166.324 145.674,166.15C146.829,165.974 148.405,166.144 150.391,166.582C150.619,166.633 151.727,167.135 153.395,168.024C159.188,171.113 173.055,178.966 179.553,183.058C181.291,184.153 182.529,185.008 183.023,185.458L183.425,185.896L183.648,186.287L183.825,186.996L183.786,187.677L183.57,188.319C183.467,188.534 183.331,188.754 183.166,188.977C182.977,189.233 182.737,189.502 182.517,189.798C182.39,189.969 182.244,190.162 182.279,190.41C182.558,190.467 183.175,190.582 183.667,190.593C186.685,190.655 191.533,189.652 193.801,188.46C195.724,187.448 197.511,185.093 199.086,183.301C199.412,182.93 199.735,182.582 200.052,182.263C197.282,178.559 194.561,174.783 191.951,170.979C179.424,167.343 148.281,158.079 131.436,150.778ZM359.249,371.481L362.147,371.496C359.578,368.509 356.383,364.793 352.701,360.513C355.351,364.28 357.621,368.328 359.249,371.481ZM321.951,164.786C323.718,159.784 324.942,155.36 325.791,151.499C305.473,152.669 288.934,150.865 279.797,147.075C277.733,151.193 275.373,155.388 272.802,159.599C292.672,157.595 311,160.618 321.951,164.786ZM243.56,199.682C242.147,201.396 240.749,203.072 239.373,204.704L301.633,204.704C305.267,199.071 308.393,193.779 311.082,188.823C301.233,189.854 286.511,192.05 277.493,194.972C270.23,197.326 255.49,198.004 246.496,199.22C245.422,199.365 244.435,199.517 243.56,199.682ZM326.47,148.12C327.431,142.813 327.661,138.78 327.745,135.97C319.659,133.641 301.749,129.152 286.298,131.194C286.009,132.09 285.713,132.986 285.41,133.881C284.289,137.19 282.886,140.601 281.253,144.078C290.188,147.766 306.485,149.355 326.47,148.12ZM312.957,185.286C313.264,184.692 313.565,184.104 313.86,183.52C308.092,182.821 297.408,181.899 286.484,182.886C276.927,183.749 263.805,187.364 255.61,189.37C253.857,189.799 252.312,190.149 251.047,190.394C249.597,192.236 248.148,194.05 246.707,195.83C255.576,194.693 269.515,194.053 276.466,191.801C286.375,188.591 303.031,186.221 312.957,185.286ZM213.396,204.704L217.969,204.704C217.437,204.073 216.901,203.436 216.363,202.792C215.509,203.3 214.509,203.947 213.396,204.704Z" style="fill:rgb(216,14,130);"/>
                    </g>
                </g>
            </g>
        </g>
    </g>
</svg>
