<?xml version="1.0" encoding="UTF-8" standalone="no"?>
<!DOCTYPE svg PUBLIC "-//W3C//DTD SVG 1.1//EN" "http://www.w3.org/Graphics/SVG/1.1/DTD/svg11.dtd">
<svg width="100%" height="100%" viewBox="0 0 225 225" version="1.1" xmlns="http://www.w3.org/2000/svg" xmlns:xlink="http://www.w3.org/1999/xlink" xml:space="preserve" xmlns:serif="http://www.serif.com/" style="fill-rule:evenodd;clip-rule:evenodd;stroke-linejoin:round;stroke-miterlimit:2;">
    <g transform="matrix(1,0,0,1,-723.846,-225)">
        <g id="Artboard2" transform="matrix(0.5,0,0,0.5,394.679,225)">
            <rect x="658.333" y="0" width="450" height="450" style="fill:none;"/>
            <clipPath id="_clip1">
                <rect x="658.333" y="0" width="450" height="450"/>
            </clipPath>
            <g clip-path="url(#_clip1)">
                <g transform="matrix(1,0,0,1,654.642,-8.89193)">
                    <g>
                        <g transform="matrix(1,0,0,1,0,-0.123478)">
                            <path d="M243.56,199.805C244.603,198.541 245.653,197.257 246.707,195.954C255.576,194.816 269.515,194.177 276.466,191.925C286.375,188.714 303.031,186.345 312.957,185.41C312.357,186.569 311.732,187.748 311.082,188.946C301.233,189.978 286.511,192.174 277.493,195.096C270.23,197.449 255.49,198.128 246.496,199.344C245.422,199.489 244.435,199.641 243.56,199.805Z" style="fill:rgb(216,14,130);"/>
                        </g>
                        <g transform="matrix(1,0,0,1,0,-0.123478)">
                            <path d="M294.207,89.429C294.442,82.683 294.037,76.371 292.928,70.725C295.921,71.373 298.866,71.939 301.343,72.712C309.548,80.535 316.166,89.687 320.733,99.772C313.749,97.426 301.526,93.003 295.394,90.049C294.985,89.852 294.58,89.638 294.207,89.429Z"/>
                        </g>
                        <g transform="matrix(1,0,0,1,0,-0.123478)">
                            <path d="M292.928,70.725C292.881,70.485 292.832,70.246 292.782,70.008C292.58,69.042 292.357,68.095 292.113,67.168C293.438,67.483 294.772,67.771 296.08,68.055C297.899,69.549 299.654,71.102 301.343,72.712C298.866,71.939 295.921,71.373 292.928,70.725Z" style="fill:rgb(216,14,130);"/>
                        </g>
                        <g transform="matrix(1,0,0,1,0,-0.123478)">
                            <path d="M292.113,67.168C291.862,66.213 291.588,65.278 291.291,64.366C292.932,65.551 294.529,66.781 296.08,68.055C294.772,67.771 293.438,67.483 292.113,67.168Z" style="fill:white;"/>
                        </g>
                        <g transform="matrix(1,0,0,1,0,-0.123478)">
                            <path d="M251.047,190.518C252.117,189.156 253.188,187.78 254.255,186.39C254.443,186.346 254.63,186.302 254.818,186.256C263.142,184.218 276.476,180.566 286.184,179.689C298.151,178.609 309.838,179.757 315.42,180.481C314.92,181.518 314.401,182.572 313.86,183.644C308.092,182.944 297.408,182.023 286.484,183.009C276.927,183.872 263.805,187.488 255.61,189.493C253.857,189.922 252.312,190.273 251.047,190.518Z" style="fill:rgb(216,14,130);"/>
                        </g>
                        <g transform="matrix(1,0,0,1,0,-0.123478)">
                            <path d="M101.592,364.229C102.959,362.639 104.413,360.95 105.943,359.171C107.605,358.282 109.787,357.265 111.725,356.383C108.282,357.95 105.841,359.431 105.145,360.381C104.616,361.103 104.194,361.836 103.758,362.502C103.328,363.157 102.92,363.762 102.161,364.04C101.985,364.104 101.795,364.168 101.592,364.229Z" style="fill:white;"/>
                        </g>
                        <g transform="matrix(1,0,0,1,0,-0.123478)">
                            <path d="M270.554,163.327C271.319,162.125 272.069,160.923 272.802,159.723C292.672,157.719 311,160.741 321.951,164.91C321.591,165.927 321.209,166.969 320.803,168.034C309.776,163.804 290.847,160.826 270.554,163.327Z" style="fill:rgb(216,14,130);"/>
                        </g>
                        <g transform="matrix(1,0,0,1,0,-0.123478)">
                            <path d="M292.724,104.629C292.897,103.515 293.055,102.408 293.199,101.308C304.485,101.599 316.765,104.277 323.206,105.883C323.65,107.123 324.064,108.375 324.446,109.638C319.032,108.207 305.191,104.878 292.724,104.629Z" style="fill:rgb(216,14,130);"/>
                        </g>
                        <g transform="matrix(1,0,0,1,0,-0.123478)">
                            <path d="M190.238,335.14C173.702,353.41 161.488,366.856 157.453,371.295C157.453,371.295 95.236,371.619 95.236,371.619C96.051,370.672 96.929,369.651 97.865,368.563C99.13,368.358 100.461,368.073 101.532,367.681C102.796,367.219 103.663,366.4 104.406,365.372C104.951,364.618 105.423,363.731 106.06,362.862C106.225,362.636 106.59,362.405 107.067,362.108C108.092,361.468 111.343,360.219 113.105,359.417C120.253,356.165 131.938,351.961 138.273,349.327C143.427,347.184 159.306,343.671 173.163,339.798C179.045,338.154 185.357,336.564 190.238,335.14Z" style="fill:white;"/>
                        </g>
                        <g transform="matrix(1,0,0,1,0,-0.123478)">
                            <path d="M239.373,204.828C240.749,203.195 242.147,201.519 243.56,199.805C244.435,199.641 245.422,199.489 246.496,199.344C255.49,198.128 270.23,197.449 277.493,195.096C286.511,192.174 301.233,189.978 311.082,188.946C308.393,193.903 305.267,199.195 301.633,204.828L239.373,204.828Z"/>
                        </g>
                        <g transform="matrix(1,0,0,1,0,-0.123478)">
                            <path d="M97.865,368.563C99.021,367.219 100.266,365.771 101.592,364.229C101.795,364.168 101.985,364.104 102.161,364.04C102.92,363.762 103.328,363.157 103.758,362.502C104.194,361.836 104.616,361.103 105.145,360.381C105.841,359.431 108.282,357.95 111.725,356.383C118.902,353.118 130.632,348.894 136.993,346.249C142.204,344.082 158.254,340.504 172.266,336.588C179.554,334.551 187.508,332.6 192.536,330.947C193.359,330.677 194.097,330.421 194.73,330.177C193.2,331.867 191.703,333.522 190.238,335.14C185.357,336.564 179.045,338.154 173.163,339.798C159.306,343.671 143.427,347.184 138.273,349.327C131.938,351.961 120.253,356.165 113.105,359.417C111.343,360.219 108.092,361.468 107.067,362.108C106.59,362.405 106.225,362.636 106.06,362.862C105.423,363.731 104.951,364.618 104.406,365.372C103.663,366.4 102.796,367.219 101.532,367.681C100.461,368.073 99.13,368.358 97.865,368.563Z" style="fill:rgb(216,14,130);"/>
                        </g>
                        <g transform="matrix(1,0,0,1,0,-0.123478)">
                            <path d="M154.887,302.305C157.337,299.46 159.786,296.617 162.221,293.792L170.955,293.792C169.689,294.397 168.471,294.993 167.307,295.569C163.853,297.279 159.275,299.805 154.887,302.305Z"/>
                        </g>
                        <g transform="matrix(1,0,0,1,0,-0.123478)">
                            <path d="M254.255,186.39C259.97,178.949 265.582,171.137 270.554,163.327C290.847,160.826 309.776,163.804 320.803,168.034C319.341,171.87 317.569,176.017 315.42,180.481C309.838,179.757 298.151,178.609 286.184,179.689C276.476,180.566 263.142,184.218 254.818,186.256C254.63,186.302 254.443,186.346 254.255,186.39Z"/>
                        </g>
                        <g transform="matrix(1,0,0,1,0,-0.123478)">
                            <path d="M293.199,101.308C293.565,98.517 293.84,95.772 294.02,93.087C301.168,96.517 316.24,101.846 322.441,103.832C322.705,104.512 322.96,105.196 323.206,105.883C316.765,104.277 304.485,101.599 293.199,101.308Z" style="fill:white;"/>
                        </g>
                        <g transform="matrix(1,0,0,1,0,-0.123478)">
                            <path d="M114.05,349.747C116.201,347.247 118.444,344.64 120.762,341.946C121.873,341.176 122.947,340.366 123.949,339.519C125.928,337.843 137.883,332.359 150.385,327.184C153.548,325.875 158.4,322.518 161.442,321.182C173.671,315.809 209.725,299.515 215.127,298.298C217.168,297.839 220.726,297.751 223.979,297.791C222.98,298.9 221.985,300.003 220.996,301.099C218.992,301.139 217.119,301.267 215.86,301.55C210.516,302.754 174.878,318.92 162.782,324.234C159.724,325.578 154.841,328.948 151.66,330.264C139.597,335.257 128.013,340.445 126.102,342.063C122.485,345.124 117.975,347.725 114.05,349.747Z" style="fill:rgb(216,14,130);"/>
                        </g>
                        <g transform="matrix(1,0,0,1,0,-0.123478)">
                            <path d="M286.298,131.317C286.672,130.157 287.035,128.996 287.385,127.836C302.596,126.257 319.712,130.417 327.827,132.701C327.829,132.753 327.833,132.806 327.837,132.858C327.831,132.929 327.827,133 327.824,133.071C327.792,133.841 327.783,134.847 327.745,136.094C319.659,133.764 301.749,129.275 286.298,131.317Z" style="fill:rgb(216,14,130);"/>
                        </g>
                        <g transform="matrix(1,0,0,1,0,-0.123478)">
                            <path d="M148.264,309.996C150.466,307.438 152.677,304.871 154.887,302.305C159.275,299.805 163.853,297.279 167.307,295.569C168.471,294.993 169.689,294.397 170.955,293.792L178.973,293.792C175.27,295.39 171.835,297.048 168.786,298.557C163.029,301.405 154.126,306.545 148.264,309.996Z" style="fill:rgb(216,14,130);"/>
                        </g>
                        <g transform="matrix(1,0,0,1,0,-0.123478)">
                            <path d="M120.762,341.946C129.208,332.13 138.65,321.159 148.264,309.996C154.126,306.545 163.029,301.405 168.786,298.557C171.835,297.048 175.27,295.39 178.973,293.792L170.955,293.792L162.221,293.792C188.317,263.504 212.728,235.227 218.812,228.355C223.552,223.001 231.036,214.721 239.373,204.828L301.633,204.828C292.612,218.811 280.46,234.897 264.082,253.179C250.959,267.827 237.668,282.606 225.106,296.541C225.08,296.569 225.055,296.598 225.029,296.626C224.679,297.015 224.328,297.404 223.979,297.791C220.726,297.751 217.168,297.839 215.127,298.298C209.725,299.515 173.671,315.809 161.442,321.182C158.4,322.518 153.548,325.875 150.385,327.184C137.883,332.359 125.928,337.843 123.949,339.519C122.947,340.366 121.873,341.176 120.762,341.946Z" style="fill:white;"/>
                        </g>
                        <g transform="matrix(1,0,0,1,0,-0.123478)">
                            <path d="M279.797,147.199C280.3,146.195 280.786,145.195 281.253,144.201C290.188,147.889 306.485,149.478 326.47,148.244C326.275,149.318 326.05,150.444 325.791,151.623C305.473,152.793 288.934,150.989 279.797,147.199Z" style="fill:rgb(216,14,130);"/>
                        </g>
                        <g transform="matrix(1,0,0,1,0,-0.123478)">
                            <path d="M105.943,359.171C108.452,356.253 111.169,353.096 114.05,349.747C117.975,347.725 122.485,345.124 126.102,342.063C128.013,340.445 139.597,335.257 151.66,330.264C154.841,328.948 159.724,325.578 162.782,324.234C174.878,318.92 210.516,302.754 215.86,301.55C217.119,301.267 218.992,301.139 220.996,301.099C211.639,311.474 202.755,321.306 194.73,330.177C194.097,330.421 193.359,330.677 192.536,330.947C187.508,332.6 179.554,334.551 172.266,336.588C158.254,340.504 142.204,344.082 136.993,346.249C130.632,348.894 118.902,353.118 111.725,356.383C109.787,357.265 107.605,358.282 105.943,359.171Z"/>
                        </g>
                        <g transform="matrix(1,0,0,1,0,-0.123478)">
                            <path d="M294.02,93.087C294.102,91.855 294.165,90.635 294.207,89.429C294.58,89.638 294.985,89.852 295.394,90.049C301.526,93.003 313.749,97.426 320.733,99.772C321.339,101.109 321.908,102.463 322.441,103.832C316.24,101.846 301.168,96.517 294.02,93.087Z" style="fill:rgb(216,14,130);"/>
                        </g>
                        <g transform="matrix(1,0,0,1,0,-0.123478)">
                            <path d="M246.707,195.954C248.148,194.174 249.597,192.36 251.047,190.518C252.312,190.273 253.857,189.922 255.61,189.493C263.805,187.488 276.927,183.872 286.484,183.009C297.408,182.023 308.092,182.944 313.86,183.644C313.565,184.227 313.264,184.816 312.957,185.41C303.031,186.345 286.375,188.714 276.466,191.925C269.515,194.177 255.576,194.816 246.707,195.954Z" style="fill:white;"/>
                        </g>
                        <g transform="matrix(1,0,0,1,0,-0.123478)">
                            <path d="M272.802,159.723C275.373,155.511 277.733,151.317 279.797,147.199C288.934,150.989 305.473,152.793 325.791,151.623C324.942,155.483 323.718,159.907 321.951,164.91C311,160.741 292.672,157.719 272.802,159.723Z" style="fill:white;"/>
                        </g>
                        <g transform="matrix(1,0,0,1,0,-0.123478)">
                            <path d="M289.929,118.535C291.083,113.832 292.02,109.178 292.724,104.629C305.191,104.878 319.032,108.207 324.446,109.638C325.794,114.09 326.756,118.684 327.3,123.389C322.183,121.7 313.603,119.705 305.233,118.74C299.693,118.101 294.247,117.927 289.929,118.535Z"/>
                        </g>
                        <g transform="matrix(1,0,0,1,0,-0.123478)">
                            <path d="M281.253,144.201C282.886,140.725 284.289,137.313 285.41,134.005C285.713,133.109 286.009,132.213 286.298,131.317C301.749,129.275 319.659,133.764 327.745,136.094C327.661,138.904 327.431,142.937 326.47,148.244C306.485,149.478 290.188,147.889 281.253,144.201Z"/>
                        </g>
                        <g transform="matrix(1,0,0,1,0,-0.123478)">
                            <path d="M287.385,127.836C287.967,125.905 288.515,123.977 289.028,122.055C293.224,121.182 298.982,121.374 304.851,122.051C313.877,123.092 323.174,125.323 327.633,127.01C327.757,128.806 327.82,130.617 327.82,132.441C327.82,132.528 327.822,132.615 327.827,132.701C319.712,130.417 302.596,126.257 287.385,127.836Z" style="fill:white;"/>
                        </g>
                        <g transform="matrix(1,0,0,1,0,-0.123478)">
                            <path d="M289.028,122.055C289.341,120.879 289.642,119.706 289.929,118.535C294.247,117.927 299.693,118.101 305.233,118.74C313.603,119.705 322.183,121.7 327.3,123.389C327.439,124.589 327.55,125.796 327.633,127.01C323.174,125.323 313.877,123.092 304.851,122.051C298.982,121.374 293.224,121.182 289.028,122.055Z" style="fill:rgb(216,14,130);"/>
                        </g>
                        <g transform="matrix(1,0,0,1,0,-0.123478)">
                            <path d="M174.489,70.47C174.83,69.065 175.225,67.714 175.679,66.424C175.745,66.417 175.812,66.41 175.88,66.405C178.165,66.224 179.436,65.442 180.476,64.663C184.125,61.931 186.933,59.844 189.618,57.143C190.309,56.449 191.565,55.685 193.168,54.976C196.463,53.517 201.325,52.152 204.855,51.521C206.483,51.229 207.849,51.098 208.703,51.149C209.035,51.169 209.314,51.214 209.538,51.275L210.198,51.554L210.52,51.811L210.795,52.175L210.961,52.588L211.015,52.97L210.894,53.666L210.515,54.298C209.478,55.56 202.053,60.817 198.604,65.361C195.648,69.256 190.878,72.929 187.507,76.41C186.405,77.547 185.369,78.643 184.408,79.677C181.881,80.687 179.405,81.78 176.985,82.953C178.866,80.783 181.679,77.635 185.112,74.091C188.398,70.699 193.068,67.142 195.949,63.346C197.978,60.672 201.725,57.315 204.492,54.984C201.804,55.529 198.532,56.442 195.892,57.458C194.132,58.135 192.66,58.812 191.982,59.493C189.187,62.305 186.272,64.487 182.474,67.331C181.041,68.405 179.29,69.478 176.144,69.728C175.405,69.786 174.886,70.133 174.489,70.47Z" style="fill:rgb(216,14,130);"/>
                        </g>
                        <g transform="matrix(1,0,0,1,0,-0.123478)">
                            <path d="M175.679,66.424C177.966,59.924 181.742,54.981 187.532,52.557C187.607,52.526 187.681,52.49 187.755,52.457C200.081,47.037 214.112,44.633 228.692,44.633C243.271,44.633 257.302,47.037 269.628,52.457C269.703,52.49 269.776,52.526 269.852,52.557C270.667,52.899 271.442,53.29 272.179,53.729C262.831,57.993 243.479,66.911 235.126,71.428C232.997,71.317 230.852,71.26 228.692,71.26C212.921,71.26 197.933,74.271 184.408,79.677C185.369,78.643 186.405,77.547 187.507,76.41C190.878,72.929 195.648,69.256 198.604,65.361C202.053,60.817 209.478,55.56 210.515,54.298L210.894,53.666L211.015,52.97L210.961,52.588L210.795,52.175L210.52,51.811L210.198,51.554L209.538,51.275C209.314,51.214 209.035,51.169 208.703,51.149C207.849,51.098 206.483,51.229 204.855,51.521C201.325,52.152 196.463,53.517 193.168,54.976C191.565,55.685 190.309,56.449 189.618,57.143C186.933,59.844 184.125,61.931 180.476,64.663C179.436,65.442 178.165,66.224 175.88,66.405C175.812,66.41 175.745,66.417 175.679,66.424Z"/>
                        </g>
                        <g transform="matrix(1,0,0,1,0,-0.123478)">
                            <path d="M176.985,82.953C175.581,83.634 174.195,84.341 172.829,85.074C172.878,80.408 173.303,76.018 174.143,72.005C174.251,71.487 174.367,70.975 174.489,70.47C174.886,70.133 175.405,69.786 176.144,69.728C179.29,69.478 181.041,68.405 182.474,67.331C186.272,64.487 189.187,62.305 191.982,59.493C192.66,58.812 194.132,58.135 195.892,57.458C198.532,56.442 201.804,55.529 204.492,54.984C201.725,57.315 197.978,60.672 195.949,63.346C193.068,67.142 188.398,70.699 185.112,74.091C181.679,77.635 178.866,80.783 176.985,82.953Z" style="fill:white;"/>
                        </g>
                        <g transform="matrix(1,0,0,1,0,-0.123478)">
                            <path d="M272.179,53.729C273.277,54.382 274.29,55.14 275.222,55.995C267.953,59.282 251.265,66.887 241.282,71.907C239.246,71.696 237.194,71.536 235.126,71.428C243.479,66.911 262.831,57.993 272.179,53.729Z" style="fill:rgb(216,14,130);"/>
                        </g>
                        <g transform="matrix(1,0,0,1,0,-0.123478)">
                            <path d="M275.222,55.995C279.305,59.738 281.842,65.324 283.24,72.005C284.08,76.018 284.505,80.408 284.554,85.074C271.634,78.138 256.966,73.527 241.282,71.907C251.265,66.887 267.953,59.282 275.222,55.995Z" style="fill:white;"/>
                        </g>
                        <g transform="matrix(1,0,0,1,0,-0.123478)">
                            <path d="M240.705,293.792C249.807,283.684 259.176,273.259 268.493,262.864C276.655,272.319 285.8,282.926 295.162,293.792L289.99,293.792L240.705,293.792Z" style="fill:white;"/>
                        </g>
                        <g transform="matrix(1,0,0,1,0,-0.123478)">
                            <path d="M295.162,293.792L295.836,294.574C294.135,294.333 292.163,294.065 289.99,293.792L295.162,293.792Z" style="fill:rgb(216,14,130);"/>
                        </g>
                        <g transform="matrix(1,0,0,1,0,-0.123478)">
                            <path d="M238.347,303.272C237.322,302.136 236.291,300.993 235.254,299.843C237.059,297.84 238.876,295.822 240.705,293.792L289.99,293.792C292.163,294.065 294.135,294.333 295.836,294.574C297.647,296.676 299.465,298.786 301.286,300.9C289.592,298.919 272.318,296.872 262.949,297.675C248.617,298.905 242.373,301.349 239.294,302.818C238.969,302.973 238.644,303.129 238.347,303.272Z"/>
                        </g>
                        <g transform="matrix(1,0,0,1,0,-0.123478)">
                            <path d="M301.286,300.9C302.426,302.224 303.568,303.55 304.709,304.874C293.719,302.772 273.549,300.112 263.233,300.997C249.648,302.162 243.65,304.44 240.673,305.85C239.901,304.995 239.126,304.136 238.347,303.272C238.644,303.129 238.969,302.973 239.294,302.818C242.373,301.349 248.617,298.905 262.949,297.675C272.318,296.872 289.592,298.919 301.286,300.9Z" style="fill:rgb(216,14,130);"/>
                        </g>
                        <g transform="matrix(1,0,0,1,0,-0.123478)">
                            <path d="M304.709,304.874C306.458,306.904 308.204,308.933 309.945,310.954C306.417,310.961 302.629,311.135 299.634,311.681C292.593,312.964 259.968,316.963 251.1,317.398C247.719,313.655 244.236,309.798 240.673,305.85C243.65,304.44 249.648,302.162 263.233,300.997C273.549,300.112 293.719,302.772 304.709,304.874Z" style="fill:white;"/>
                        </g>
                        <g transform="matrix(1,0,0,1,0,-0.123478)">
                            <path d="M352.701,360.636C356.383,364.917 359.578,368.632 362.147,371.619L359.249,371.604C357.621,368.451 355.351,364.403 352.701,360.636Z" style="fill:white;"/>
                        </g>
                        <g transform="matrix(1,0,0,1,0,-0.123478)">
                            <path d="M318.972,371.394L314.762,371.372C310.992,366.494 304.02,358.119 293.033,351.423C286.641,347.528 280.88,346.1 276.667,345.655C275.631,344.512 274.57,343.34 273.484,342.141C278.158,342.145 285.925,343.188 294.767,348.577C308.021,356.653 315.662,367.062 318.972,371.394Z" style="fill:rgb(216,14,130);"/>
                        </g>
                        <g transform="matrix(1,0,0,1,0,-0.123478)">
                            <path d="M314.762,371.372L299.93,371.295C296.716,367.758 288.312,358.507 276.667,345.655C280.88,346.1 286.641,347.528 293.033,351.423C304.02,358.119 310.992,366.494 314.762,371.372Z" style="fill:white;"/>
                        </g>
                        <g transform="matrix(1,0,0,1,0,-0.123478)">
                            <path d="M309.945,310.954C310.909,312.073 311.871,313.191 312.83,314.305C308.79,314.213 303.893,314.293 300.232,314.96C293.724,316.146 265.651,319.602 253.934,320.534C252.998,319.498 252.053,318.452 251.1,317.398C259.968,316.963 292.593,312.964 299.634,311.681C302.629,311.135 306.417,310.961 309.945,310.954Z" style="fill:rgb(216,14,130);"/>
                        </g>
                        <g transform="matrix(1,0,0,1,0,-0.123478)">
                            <path d="M312.83,314.305C318.47,320.855 324.014,327.295 329.291,333.427C327.343,332.594 325.555,331.859 324.14,331.332C320.057,329.809 311.606,331.234 306.821,333.463L306.4,333.702L306.018,334.017L305.696,334.4L305.455,334.829C305.158,335.493 305.11,336.352 305.429,337.311C306.195,339.611 309.49,342.904 313.091,343.661C323.093,345.764 330.779,346.103 342.6,354.518C347.774,358.201 352.511,365.895 355.526,371.585L318.972,371.394C315.662,367.062 308.021,356.653 294.767,348.577C285.925,343.188 278.158,342.145 273.484,342.141C267.606,335.652 261.017,328.371 253.934,320.534C265.651,319.602 293.724,316.146 300.232,314.96C303.893,314.293 308.79,314.213 312.83,314.305Z"/>
                        </g>
                        <g transform="matrix(1,0,0,1,0,-0.123478)">
                            <path d="M329.291,333.427C331.004,335.417 332.688,337.375 334.339,339.294C330.215,337.433 325.827,335.518 322.975,334.455C321.646,333.959 319.747,333.904 317.701,334.082C314.583,334.354 311.139,335.214 308.65,336.295C308.789,336.611 309.046,337.144 309.339,337.51C310.345,338.765 312.008,340.027 313.776,340.399C324.211,342.593 332.201,343.024 344.533,351.803C345.149,352.241 345.759,352.732 346.362,353.267C348.601,355.87 350.721,358.335 352.701,360.636C355.351,364.403 357.621,368.451 359.249,371.604L355.526,371.585C352.511,365.895 347.774,358.201 342.6,354.518C330.779,346.103 323.093,345.764 313.091,343.661C309.49,342.904 306.195,339.611 305.429,337.311C305.11,336.352 305.158,335.493 305.455,334.829L305.696,334.4L306.018,334.017L306.4,333.702L306.821,333.463C311.606,331.234 320.057,329.809 324.14,331.332C325.555,331.859 327.343,332.594 329.291,333.427Z" style="fill:rgb(216,14,130);"/>
                        </g>
                        <g transform="matrix(1,0,0,1,0,-0.123478)">
                            <path d="M334.339,339.294C338.606,344.252 342.647,348.949 346.362,353.267C345.759,352.732 345.149,352.241 344.533,351.803C332.201,343.024 324.211,342.593 313.776,340.399C312.008,340.027 310.345,338.765 309.339,337.51C309.046,337.144 308.789,336.611 308.65,336.295C311.139,335.214 314.583,334.354 317.701,334.082C319.747,333.904 321.646,333.959 322.975,334.455C325.827,335.518 330.215,337.433 334.339,339.294Z" style="fill:white;"/>
                        </g>
                        <g transform="matrix(1,0,0,1,0,-0.123478)">
                            <path d="M137.847,97.245C139.713,93.472 141.87,89.839 144.292,86.367C148.037,88.609 152.539,91.99 158.719,94.889L159.376,95.053L160.039,94.959L160.567,94.67L160.948,94.272C161.206,93.918 161.576,92.819 162.089,91.435C162.363,90.694 162.703,89.84 163.163,89.03C163.477,99.107 165.228,110.17 168.194,121.445C167.394,120.52 166.593,119.638 165.808,118.826C163.638,116.581 161.553,114.874 159.911,114.154C151.472,110.457 143.171,103.093 138.572,98.051C138.319,97.774 138.077,97.505 137.847,97.245Z"/>
                        </g>
                        <g transform="matrix(1,0,0,1,0,-0.123478)">
                            <path d="M144.292,86.367C144.918,85.47 145.561,84.584 146.222,83.71C149.565,85.767 153.516,88.58 158.645,91.148C158.747,90.864 158.857,90.562 158.963,90.276C159.717,88.243 160.964,85.668 163.064,84.145L163.127,84.114C163.099,85.724 163.111,87.363 163.163,89.03C162.703,89.84 162.363,90.694 162.089,91.435C161.576,92.819 161.206,93.918 160.948,94.272L160.567,94.67L160.039,94.959L159.376,95.053L158.719,94.889C152.539,91.99 148.037,88.609 144.292,86.367Z" style="fill:rgb(216,14,130);"/>
                        </g>
                        <g transform="matrix(1,0,0,1,0,-0.123478)">
                            <path d="M129.837,125.871C130.118,122.499 130.614,119.181 131.313,115.927C143.815,125.138 165.276,135.145 173.684,138.608C175.466,143.033 177.685,147.604 180.227,152.24C172.295,149.808 161.395,146.061 151.496,141.254C143.416,137.33 132.843,129.309 129.837,125.871Z"/>
                        </g>
                        <g transform="matrix(1,0,0,1,0,-0.123478)">
                            <path d="M131.313,115.927C131.568,114.741 131.849,113.562 132.157,112.393C143.026,120.77 162.219,130.031 172.079,134.312C172.564,135.726 173.1,137.159 173.684,138.608C165.276,135.145 143.815,125.138 131.313,115.927Z" style="fill:rgb(216,14,130);"/>
                        </g>
                        <g transform="matrix(1,0,0,1,0,-0.123478)">
                            <path d="M132.157,112.393C133.231,108.319 134.626,104.355 136.315,100.522C141.192,105.816 149.821,113.373 158.574,117.208C160.119,117.885 162.072,119.684 164.137,121.908C166.339,124.28 168.629,127.146 170.617,129.846C171.052,131.233 171.504,132.619 171.974,134.005C172.008,134.107 172.043,134.209 172.079,134.312C162.219,130.031 143.026,120.77 132.157,112.393Z" style="fill:white;"/>
                        </g>
                        <g transform="matrix(1,0,0,1,0,-0.123478)">
                            <path d="M136.315,100.522C136.801,99.419 137.312,98.326 137.847,97.245C138.077,97.505 138.319,97.774 138.572,98.051C143.171,103.093 151.472,110.457 159.911,114.154C161.553,114.874 163.638,116.581 165.808,118.826C166.593,119.638 167.394,120.52 168.194,121.445C168.928,124.236 169.737,127.041 170.617,129.846C168.629,127.146 166.339,124.28 164.137,121.908C162.072,119.684 160.119,117.885 158.574,117.208C149.821,113.373 141.192,105.816 136.315,100.522Z" style="fill:rgb(216,14,130);"/>
                        </g>
                        <g transform="matrix(1,0,0,1,0,-0.123478)">
                            <path d="M130.684,146.918C129.541,140.001 129.657,135.428 129.559,133.071C129.556,133 129.552,132.929 129.546,132.858C129.558,132.72 129.564,132.581 129.564,132.441C129.564,131.716 129.573,130.993 129.593,130.273C134.251,134.458 143.019,140.843 150.04,144.252C161.587,149.86 174.475,154.052 182.599,156.429C184.607,159.869 186.771,163.331 189.046,166.783C174.231,162.434 145.342,153.643 130.684,146.918Z" style="fill:white;"/>
                        </g>
                        <g transform="matrix(1,0,0,1,0,-0.123478)">
                            <path d="M129.593,130.273C129.634,128.796 129.715,127.328 129.837,125.871C132.843,129.309 143.416,137.33 151.496,141.254C161.395,146.061 172.295,149.808 180.227,152.24C180.99,153.632 181.782,155.029 182.599,156.429C174.475,154.052 161.587,149.86 150.04,144.252C143.019,140.843 134.251,134.458 129.593,130.273Z" style="fill:rgb(216,14,130);"/>
                        </g>
                        <g transform="matrix(1,0,0,1,0,-0.123478)">
                            <path d="M214.208,200.324C214.93,201.198 215.649,202.062 216.363,202.915C215.509,203.423 214.509,204.071 213.396,204.828L207.605,204.828C209.808,203.237 211.793,201.856 213.421,200.817C213.692,200.643 213.955,200.479 214.208,200.324Z" style="fill:rgb(216,14,130);"/>
                        </g>
                        <g transform="matrix(1,0,0,1,0,-0.123478)">
                            <path d="M146.222,83.71C151.452,76.782 157.764,70.554 164.941,65.21C165.17,65.434 165.401,65.654 165.63,65.868C165.241,67.205 164.898,68.586 164.601,70.008C163.694,74.34 163.213,79.078 163.127,84.114L163.064,84.145C160.964,85.668 159.717,88.243 158.963,90.276C158.857,90.562 158.747,90.864 158.645,91.148C153.516,88.58 149.565,85.767 146.222,83.71Z" style="fill:white;"/>
                        </g>
                        <g transform="matrix(1,0,0,1,0,-0.123478)">
                            <path d="M164.941,65.21C165.322,64.926 165.706,64.645 166.092,64.366C165.931,64.86 165.777,65.361 165.63,65.868C165.401,65.654 165.17,65.434 164.941,65.21Z" style="fill:rgb(216,14,130);"/>
                        </g>
                        <g transform="matrix(1,0,0,1,0,-0.123478)">
                            <path d="M189.046,166.783C189.996,168.225 190.965,169.666 191.951,171.102C179.424,167.467 148.281,158.203 131.436,150.902C131.138,149.497 130.89,148.169 130.684,146.918C145.342,153.643 174.231,162.434 189.046,166.783Z" style="fill:rgb(216,14,130);"/>
                        </g>
                        <g transform="matrix(1,0,0,1,0,-0.123478)">
                            <path d="M191.951,171.102C194.561,174.907 197.282,178.683 200.052,182.386C199.735,182.705 199.412,183.053 199.086,183.424C197.511,185.216 195.724,187.572 193.801,188.583C191.533,189.776 186.685,190.778 183.667,190.716C183.175,190.706 182.558,190.591 182.279,190.533C182.244,190.285 182.39,190.093 182.517,189.921C182.737,189.626 182.977,189.356 183.166,189.1C183.331,188.877 183.467,188.657 183.57,188.443L183.786,187.801L183.825,187.119L183.648,186.411L183.425,186.019L183.023,185.581C182.529,185.132 181.291,184.277 179.553,183.182C173.055,179.089 159.188,171.237 153.395,168.148C151.727,167.259 150.619,166.756 150.391,166.706C148.405,166.267 146.829,166.098 145.674,166.274C144.528,166.448 143.683,166.927 143.087,167.679C142.526,168.385 142.163,169.394 142.155,170.824C142.153,171.242 142.327,172.018 142.751,173.01C143.475,174.704 144.943,177.333 146.699,179.897C149.534,184.035 157.105,191.922 157.432,192.358C158.939,194.366 163.244,196.676 165.155,197.234C167.218,197.836 167.965,200.501 168.054,200.847C167.84,201.702 167.063,202.855 166.095,204.114C165.914,204.35 165.725,204.588 165.529,204.828L155.749,204.828C140.253,180.807 133.998,162.99 131.436,150.902C148.281,158.203 179.424,167.467 191.951,171.102Z"/>
                        </g>
                        <g transform="matrix(1,0,0,1,0,-0.123478)">
                            <path d="M200.052,182.386C200.726,183.287 201.402,184.183 202.081,185.074C201.92,185.25 201.757,185.435 201.59,185.624C199.758,187.709 197.59,190.357 195.352,191.533C192.72,192.917 187.101,194.121 183.598,194.049C182.299,194.022 181.246,193.799 180.59,193.457L179.865,192.935L179.446,192.382C178.556,190.778 178.861,189.528 179.479,188.476C179.668,188.154 179.896,187.856 180.121,187.576C179.542,187.168 178.658,186.557 177.776,186.002C171.33,181.942 157.574,174.153 151.827,171.089C150.754,170.517 149.758,170.031 149.564,169.937C148.5,169.705 147.592,169.553 146.838,169.535C146.354,169.524 145.966,169.5 145.723,169.724C145.496,169.932 145.491,170.292 145.489,170.778C145.524,170.884 145.801,171.702 146.127,172.383C146.861,173.917 148.06,175.986 149.449,178.014C152.259,182.115 159.774,189.925 160.098,190.357C161.258,191.902 164.619,193.605 166.089,194.034C169.181,194.937 170.618,197.569 171.134,199.333C171.415,200.294 171.411,201.054 171.36,201.327C171.188,202.246 170.593,203.482 169.691,204.828L165.529,204.828C165.725,204.588 165.914,204.35 166.095,204.114C167.063,202.855 167.84,201.702 168.054,200.847C167.965,200.501 167.218,197.836 165.155,197.234C163.244,196.676 158.939,194.366 157.432,192.358C157.105,191.922 149.534,184.035 146.699,179.897C144.943,177.333 143.475,174.704 142.751,173.01C142.327,172.018 142.153,171.242 142.155,170.824C142.163,169.394 142.526,168.385 143.087,167.679C143.683,166.927 144.528,166.448 145.674,166.274C146.829,166.098 148.405,166.267 150.391,166.706C150.619,166.756 151.727,167.259 153.395,168.148C159.188,171.237 173.055,179.089 179.553,183.182C181.291,184.277 182.529,185.132 183.023,185.581L183.425,186.019L183.648,186.411L183.825,187.119L183.786,187.801L183.57,188.443C183.467,188.657 183.331,188.877 183.166,189.1C182.977,189.356 182.737,189.626 182.517,189.921C182.39,190.093 182.244,190.285 182.279,190.533C182.558,190.591 183.175,190.706 183.667,190.716C186.685,190.778 191.533,189.776 193.801,188.583C195.724,187.572 197.511,185.216 199.086,183.424C199.412,183.053 199.735,182.705 200.052,182.386Z" style="fill:rgb(216,14,130);"/>
                        </g>
                        <g transform="matrix(1,0,0,1,0,-0.123478)">
                            <path d="M202.081,185.074C202.926,186.184 203.774,187.287 204.623,188.381C203.969,188.774 203.428,189.146 203.179,189.394C202.381,190.184 196.324,193.94 189.482,199.108C187.143,200.875 184.715,202.802 182.364,204.828L213.396,204.828C214.509,204.071 215.509,203.423 216.363,202.915C218.37,205.314 220.337,207.627 222.239,209.837C217.966,214.683 214.258,218.792 211.513,221.892C208.279,225.545 199.871,235.241 188.785,248.071C174.661,231.885 163.92,217.494 155.749,204.828L165.529,204.828L169.691,204.828C170.593,203.482 171.188,202.246 171.36,201.327C171.411,201.054 171.415,200.294 171.134,199.333C170.618,197.569 169.181,194.937 166.089,194.034C164.619,193.605 161.258,191.902 160.098,190.357C159.774,189.925 152.259,182.115 149.449,178.014C148.06,175.986 146.861,173.917 146.127,172.383C145.801,171.702 145.524,170.884 145.489,170.778C145.491,170.292 145.496,169.932 145.723,169.724C145.966,169.5 146.354,169.524 146.838,169.535C147.592,169.553 148.5,169.705 149.564,169.937C149.758,170.031 150.754,170.517 151.827,171.089C157.574,174.153 171.33,181.942 177.776,186.002C178.658,186.557 179.542,187.168 180.121,187.576C179.896,187.856 179.668,188.154 179.479,188.476C178.861,189.528 178.556,190.778 179.446,192.382L179.865,192.935L180.59,193.457C181.246,193.799 182.299,194.022 183.598,194.049C187.101,194.121 192.72,192.917 195.352,191.533C197.59,190.357 199.758,187.709 201.59,185.624C201.757,185.435 201.92,185.25 202.081,185.074Z" style="fill:white;"/>
                        </g>
                        <g transform="matrix(1,0,0,1,0,-0.123478)">
                            <path d="M204.623,188.381C205.308,189.263 205.994,190.139 206.68,191.009C206.157,191.296 205.717,191.571 205.525,191.761C204.706,192.573 198.514,196.464 191.491,201.768C190.201,202.742 188.882,203.765 187.564,204.828L182.364,204.828C184.715,202.802 187.143,200.875 189.482,199.108C196.324,193.94 202.381,190.184 203.179,189.394C203.428,189.146 203.969,188.774 204.623,188.381Z" style="fill:rgb(216,14,130);"/>
                        </g>
                        <g transform="matrix(1,0,0,1,0,-0.123478)">
                            <path d="M206.68,191.009C209.205,194.211 211.729,197.327 214.208,200.324C213.955,200.479 213.692,200.643 213.421,200.817C211.793,201.856 209.808,203.237 207.605,204.828L187.564,204.828C188.882,203.765 190.201,202.742 191.491,201.768C198.514,196.464 204.706,192.573 205.525,191.761C205.717,191.571 206.157,191.296 206.68,191.009Z"/>
                        </g>
                    </g>
                    <g transform="matrix(1,0,0,1,0,-0.123478)">
                        <path d="M155.749,204.828C140.253,180.807 133.998,162.99 131.436,150.902C148.281,158.203 179.424,167.467 191.951,171.102C194.561,174.907 197.282,178.683 200.052,182.386C199.735,182.705 199.412,183.053 199.086,183.424C197.511,185.216 195.724,187.572 193.801,188.583C191.533,189.776 186.685,190.778 183.667,190.716C183.175,190.706 182.558,190.591 182.279,190.533C182.244,190.285 182.39,190.093 182.517,189.921C182.737,189.626 182.977,189.356 183.166,189.1C183.331,188.877 183.467,188.657 183.57,188.443L183.786,187.801L183.825,187.119L183.648,186.411L183.425,186.019L183.023,185.581C182.529,185.132 181.291,184.277 179.553,183.182C173.055,179.089 159.188,171.237 153.395,168.148C151.727,167.259 150.619,166.756 150.391,166.706C148.405,166.267 146.829,166.098 145.674,166.274C144.528,166.448 143.683,166.927 143.087,167.679C142.526,168.385 142.163,169.394 142.155,170.824C142.153,171.242 142.327,172.018 142.751,173.01C143.475,174.704 144.943,177.333 146.699,179.897C149.534,184.035 157.105,191.922 157.432,192.358C158.939,194.366 163.244,196.676 165.155,197.234C167.218,197.836 167.965,200.501 168.054,200.847C167.84,201.702 167.063,202.855 166.095,204.114C165.914,204.35 165.725,204.588 165.529,204.828L155.749,204.828ZM187.564,204.828C188.882,203.765 190.201,202.742 191.491,201.768C198.514,196.464 204.706,192.573 205.525,191.761C205.717,191.571 206.157,191.296 206.68,191.009C209.205,194.211 211.729,197.327 214.208,200.324C213.955,200.479 213.692,200.643 213.421,200.817C211.793,201.856 209.808,203.237 207.605,204.828L187.564,204.828ZM239.373,204.828C240.749,203.195 242.147,201.519 243.56,199.805C244.435,199.641 245.422,199.489 246.496,199.344C255.49,198.128 270.23,197.449 277.493,195.096C286.511,192.174 301.233,189.978 311.082,188.946C308.393,193.903 305.267,199.195 301.633,204.828L239.373,204.828ZM289.99,293.792C292.163,294.065 294.135,294.333 295.836,294.574C297.647,296.676 299.465,298.786 301.286,300.9C289.592,298.919 272.318,296.872 262.949,297.675C248.617,298.905 242.373,301.349 239.294,302.818C238.969,302.973 238.644,303.129 238.347,303.272C237.322,302.136 236.291,300.993 235.254,299.843C237.059,297.84 238.876,295.822 240.705,293.792L289.99,293.792ZM170.955,293.792C169.689,294.397 168.471,294.993 167.307,295.569C163.853,297.279 159.275,299.805 154.887,302.305C157.337,299.46 159.787,296.617 162.221,293.792L170.955,293.792ZM194.73,330.177C194.097,330.421 193.359,330.677 192.536,330.947C187.508,332.6 179.554,334.551 172.266,336.588C158.254,340.504 142.204,344.082 136.993,346.249C130.632,348.894 118.902,353.118 111.725,356.383C108.282,357.95 105.841,359.431 105.145,360.381C104.616,361.103 104.194,361.836 103.758,362.502C103.328,363.157 102.92,363.762 102.161,364.04C101.985,364.104 101.795,364.168 101.592,364.229C105.203,360.031 109.412,355.137 114.05,349.747C117.975,347.725 122.485,345.124 126.102,342.063C128.013,340.445 139.597,335.257 151.66,330.264C154.841,328.948 159.724,325.578 162.782,324.234C174.878,318.92 210.516,302.754 215.86,301.55C217.119,301.267 218.992,301.139 220.996,301.099C211.639,311.474 202.755,321.306 194.73,330.177ZM315.42,180.481C309.838,179.757 298.151,178.609 286.184,179.689C276.476,180.566 263.142,184.218 254.818,186.256C254.63,186.302 254.443,186.346 254.255,186.39C259.97,178.949 265.582,171.137 270.554,163.327C290.847,160.826 309.776,163.804 320.803,168.034C319.341,171.87 317.569,176.017 315.42,180.481ZM326.47,148.244C306.485,149.478 290.188,147.889 281.253,144.201C282.886,140.725 284.289,137.313 285.41,134.005C285.713,133.109 286.009,132.213 286.298,131.317C301.749,129.275 319.659,133.764 327.745,136.094C327.661,138.904 327.431,142.937 326.47,148.244ZM327.3,123.389C322.183,121.7 313.603,119.705 305.233,118.74C299.693,118.101 294.247,117.927 289.929,118.535C291.083,113.832 292.02,109.178 292.724,104.629C305.191,104.878 319.032,108.207 324.446,109.638C325.794,114.09 326.756,118.684 327.3,123.389ZM320.733,99.772C313.749,97.426 301.526,93.003 295.394,90.049C294.985,89.852 294.58,89.638 294.207,89.429C294.442,82.683 294.037,76.371 292.928,70.725C295.921,71.373 298.866,71.939 301.343,72.712C309.548,80.535 316.166,89.687 320.733,99.772ZM180.227,152.24C172.295,149.808 161.395,146.061 151.496,141.254C143.416,137.33 132.843,129.309 129.837,125.871C130.118,122.499 130.614,119.181 131.313,115.927C143.815,125.138 165.276,135.145 173.684,138.608C175.466,143.033 177.685,147.604 180.227,152.24ZM168.194,121.445C167.394,120.52 166.593,119.638 165.808,118.826C163.638,116.581 161.553,114.874 159.911,114.154C151.472,110.457 143.171,103.093 138.572,98.051C138.319,97.774 138.077,97.505 137.847,97.245C139.713,93.472 141.87,89.839 144.292,86.367C148.037,88.609 152.539,91.99 158.719,94.889L159.376,95.053L160.039,94.959L160.567,94.67L160.948,94.272C161.206,93.918 161.576,92.819 162.089,91.435C162.363,90.694 162.703,89.84 163.163,89.03C163.477,99.107 165.228,110.17 168.194,121.445ZM184.408,79.677C185.369,78.643 186.405,77.547 187.507,76.41C190.878,72.929 195.648,69.256 198.604,65.361C202.053,60.817 209.478,55.56 210.515,54.298L210.894,53.666L211.015,52.97L210.961,52.588L210.795,52.175L210.52,51.811L210.198,51.554L209.538,51.275C209.314,51.214 209.035,51.169 208.703,51.149C207.849,51.098 206.483,51.229 204.855,51.521C201.325,52.152 196.463,53.517 193.168,54.976C191.565,55.685 190.309,56.449 189.618,57.143C186.933,59.844 184.125,61.931 180.476,64.663C179.436,65.442 178.165,66.224 175.88,66.405C175.812,66.41 175.745,66.417 175.679,66.424C177.966,59.924 181.742,54.981 187.532,52.557C187.607,52.526 187.682,52.492 187.755,52.457C200.247,47.43 214.112,44.633 228.692,44.633C243.271,44.633 257.136,47.43 269.628,52.457C269.702,52.492 269.776,52.526 269.852,52.557C270.667,52.899 271.442,53.29 272.179,53.729C262.831,57.993 243.479,66.911 235.126,71.428C232.997,71.317 230.852,71.26 228.692,71.26C212.921,71.26 197.933,74.271 184.408,79.677ZM253.934,320.534C265.651,319.602 293.724,316.146 300.232,314.96C303.893,314.293 308.79,314.213 312.83,314.305C318.47,320.855 324.014,327.295 329.291,333.427C327.343,332.594 325.555,331.859 324.14,331.332C320.057,329.809 311.606,331.234 306.821,333.463L306.4,333.702L306.018,334.017L305.696,334.4L305.455,334.829C305.158,335.493 305.11,336.352 305.429,337.311C306.195,339.611 309.49,342.904 313.091,343.661C323.093,345.764 330.779,346.103 342.6,354.518C347.774,358.201 352.511,365.895 355.526,371.585L318.972,371.394C315.662,367.062 308.021,356.653 294.767,348.577C285.925,343.188 278.158,342.145 273.484,342.141C267.606,335.652 261.017,328.371 253.934,320.534Z"/>
                        <path d="M97.865,368.563C100.213,365.832 102.929,362.674 105.943,359.171C107.605,358.282 109.787,357.265 111.725,356.383C118.902,353.118 130.632,348.894 136.993,346.249C142.204,344.082 158.254,340.504 172.266,336.588C179.554,334.551 187.508,332.6 192.536,330.947C193.359,330.677 194.097,330.421 194.73,330.177C193.2,331.867 191.703,333.522 190.238,335.14C185.357,336.564 179.045,338.154 173.163,339.798C159.306,343.671 143.427,347.184 138.273,349.327C131.938,351.961 120.253,356.165 113.105,359.417C111.343,360.219 108.092,361.468 107.067,362.108C106.59,362.405 106.225,362.636 106.06,362.862C105.423,363.731 104.951,364.618 104.406,365.372C103.663,366.4 102.796,367.219 101.532,367.681C100.461,368.073 99.13,368.358 97.865,368.563ZM114.05,349.747C116.201,347.247 118.444,344.64 120.762,341.946C121.873,341.176 122.947,340.366 123.949,339.519C125.928,337.843 137.883,332.359 150.385,327.184C153.548,325.875 158.4,322.518 161.442,321.182C173.671,315.809 209.725,299.515 215.127,298.298C217.168,297.839 220.726,297.751 223.979,297.791C222.98,298.9 221.985,300.003 220.996,301.099C218.992,301.139 217.119,301.267 215.86,301.55C210.516,302.754 174.878,318.92 162.782,324.234C159.724,325.578 154.841,328.948 151.66,330.264C139.597,335.257 128.013,340.445 126.102,342.063C122.485,345.124 117.975,347.725 114.05,349.747ZM148.264,309.996C150.466,307.438 152.677,304.871 154.887,302.305C159.275,299.805 163.853,297.279 167.307,295.569C168.471,294.993 169.689,294.397 170.955,293.792L178.973,293.792C175.27,295.39 171.835,297.048 168.786,298.557C163.029,301.405 154.126,306.545 148.264,309.996ZM243.56,199.805C244.603,198.541 245.653,197.257 246.707,195.954C255.576,194.816 269.515,194.177 276.466,191.925C286.375,188.714 303.031,186.345 312.957,185.41C312.357,186.569 311.732,187.748 311.082,188.946C301.233,189.978 286.511,192.174 277.493,195.096C270.23,197.449 255.49,198.128 246.496,199.344C245.422,199.489 244.435,199.641 243.56,199.805ZM251.047,190.518C252.117,189.156 253.188,187.78 254.255,186.39C254.443,186.346 254.63,186.302 254.818,186.256C263.142,184.218 276.476,180.566 286.184,179.689C298.151,178.609 309.838,179.757 315.42,180.481C314.92,181.518 314.401,182.572 313.86,183.644C308.092,182.944 297.408,182.023 286.484,183.009C276.927,183.872 263.805,187.488 255.61,189.493C253.857,189.922 252.312,190.273 251.047,190.518ZM270.554,163.327C271.319,162.125 272.069,160.923 272.802,159.723C292.672,157.719 311,160.741 321.951,164.91C321.591,165.927 321.209,166.969 320.803,168.034C309.776,163.804 290.847,160.826 270.554,163.327ZM279.797,147.199C280.3,146.195 280.786,145.195 281.253,144.201C290.188,147.889 306.485,149.478 326.47,148.244C326.275,149.318 326.05,150.444 325.791,151.623C305.473,152.793 288.934,150.989 279.797,147.199ZM286.298,131.317C286.672,130.157 287.035,128.996 287.385,127.836C302.596,126.257 319.712,130.417 327.827,132.701C327.829,132.753 327.833,132.806 327.837,132.858C327.831,132.929 327.827,133 327.824,133.071C327.792,133.841 327.783,134.847 327.745,136.094C319.659,133.764 301.749,129.275 286.298,131.317ZM289.028,122.055C289.341,120.879 289.642,119.706 289.929,118.535C294.247,117.927 299.693,118.101 305.233,118.74C313.603,119.705 322.183,121.7 327.3,123.389C327.439,124.589 327.55,125.796 327.633,127.01C323.174,125.323 313.877,123.092 304.851,122.051C298.982,121.374 293.224,121.182 289.028,122.055ZM292.724,104.629C292.897,103.515 293.055,102.408 293.199,101.308C304.485,101.599 316.765,104.277 323.206,105.883C323.65,107.123 324.064,108.375 324.446,109.638C319.032,108.207 305.191,104.878 292.724,104.629ZM294.02,93.087C294.102,91.855 294.165,90.635 294.207,89.429C294.58,89.638 294.985,89.852 295.394,90.049C301.526,93.003 313.749,97.426 320.733,99.772C321.339,101.109 321.908,102.463 322.441,103.832C316.24,101.846 301.168,96.517 294.02,93.087ZM292.928,70.725C292.881,70.485 292.832,70.246 292.782,70.008C292.58,69.042 292.357,68.095 292.113,67.168C293.438,67.483 294.772,67.771 296.08,68.055C297.899,69.549 299.654,71.102 301.343,72.712C298.866,71.939 295.921,71.373 292.928,70.725ZM295.162,293.792L295.836,294.574C294.135,294.333 292.163,294.065 289.99,293.792L295.162,293.792ZM301.286,300.9C302.426,302.224 303.568,303.55 304.709,304.874C293.719,302.772 273.549,300.112 263.233,300.997C249.648,302.162 243.65,304.44 240.673,305.85C239.901,304.995 239.126,304.136 238.347,303.272C238.644,303.129 238.969,302.973 239.294,302.818C242.373,301.349 248.617,298.905 262.949,297.675C272.318,296.872 289.592,298.919 301.286,300.9ZM309.945,310.954C310.909,312.073 311.871,313.191 312.83,314.305C308.79,314.213 303.893,314.293 300.232,314.96C293.724,316.146 265.651,319.602 253.934,320.534C252.998,319.498 252.053,318.452 251.1,317.398C259.968,316.963 292.593,312.964 299.634,311.681C302.629,311.135 306.417,310.961 309.945,310.954ZM329.291,333.427C331.004,335.417 332.688,337.375 334.339,339.294C330.215,337.433 325.827,335.518 322.975,334.455C321.646,333.959 319.747,333.904 317.701,334.082C314.583,334.354 311.139,335.214 308.65,336.295C308.789,336.611 309.046,337.144 309.339,337.51C310.345,338.765 312.008,340.027 313.776,340.399C324.211,342.593 332.201,343.024 344.533,351.803C345.149,352.241 345.759,352.732 346.362,353.267C348.601,355.87 350.721,358.335 352.701,360.636C355.351,364.403 357.621,368.451 359.249,371.604L355.526,371.585C352.511,365.895 347.774,358.201 342.6,354.518C330.779,346.103 323.093,345.764 313.091,343.661C309.49,342.904 306.195,339.611 305.429,337.311C305.11,336.352 305.158,335.493 305.455,334.829L305.696,334.4L306.018,334.017L306.4,333.702L306.821,333.463C311.606,331.234 320.057,329.809 324.14,331.332C325.555,331.859 327.343,332.594 329.291,333.427ZM318.972,371.394L314.762,371.372C310.992,366.494 304.02,358.119 293.033,351.423C286.641,347.528 280.88,346.1 276.667,345.655C275.631,344.512 274.57,343.34 273.484,342.141C278.158,342.145 285.925,343.188 294.767,348.577C308.021,356.653 315.662,367.062 318.972,371.394ZM174.489,70.47C174.83,69.065 175.225,67.714 175.679,66.424C175.745,66.417 175.812,66.41 175.88,66.405C178.165,66.224 179.436,65.442 180.476,64.663C184.125,61.931 186.933,59.844 189.618,57.143C190.309,56.449 191.565,55.685 193.168,54.976C196.463,53.517 201.325,52.152 204.855,51.521C206.483,51.229 207.849,51.098 208.703,51.149C209.035,51.169 209.314,51.214 209.538,51.275L210.198,51.554L210.52,51.811L210.795,52.175L210.961,52.588L211.015,52.97L210.894,53.666L210.515,54.298C209.478,55.56 202.053,60.817 198.604,65.361C195.648,69.256 190.878,72.929 187.507,76.41C186.405,77.547 185.369,78.643 184.408,79.677C181.881,80.687 179.405,81.78 176.985,82.953C178.866,80.783 181.679,77.635 185.112,74.091C188.398,70.699 193.068,67.142 195.949,63.346C197.978,60.672 201.725,57.315 204.492,54.984C201.804,55.529 198.532,56.442 195.892,57.458C194.132,58.135 192.66,58.812 191.982,59.493C189.187,62.305 186.272,64.487 182.474,67.331C181.041,68.405 179.29,69.478 176.144,69.728C175.405,69.786 174.886,70.133 174.489,70.47ZM272.179,53.729C273.277,54.382 274.29,55.14 275.222,55.995C267.953,59.282 251.265,66.887 241.282,71.907C239.246,71.696 237.194,71.536 235.126,71.428C243.479,66.911 262.831,57.993 272.179,53.729ZM129.593,130.273C129.634,128.796 129.715,127.328 129.837,125.871C132.843,129.309 143.416,137.33 151.496,141.254C161.395,146.061 172.295,149.808 180.227,152.24C180.99,153.632 181.782,155.029 182.599,156.429C174.475,154.052 161.587,149.86 150.04,144.252C143.019,140.843 134.251,134.458 129.593,130.273ZM131.313,115.927C131.568,114.741 131.849,113.562 132.157,112.393C143.026,120.77 162.219,130.031 172.079,134.312C172.564,135.726 173.1,137.159 173.684,138.608C165.276,135.145 143.815,125.138 131.313,115.927ZM136.315,100.522C136.801,99.419 137.312,98.326 137.847,97.245C138.077,97.505 138.319,97.774 138.572,98.051C143.171,103.093 151.472,110.457 159.911,114.154C161.553,114.874 163.638,116.581 165.808,118.826C166.593,119.638 167.394,120.52 168.194,121.445C168.928,124.236 169.737,127.041 170.617,129.846C168.629,127.146 166.339,124.28 164.137,121.908C162.072,119.684 160.119,117.885 158.574,117.208C149.821,113.373 141.192,105.816 136.315,100.522ZM144.292,86.367C144.918,85.47 145.561,84.584 146.222,83.71C149.565,85.767 153.516,88.58 158.645,91.148C158.747,90.864 158.857,90.562 158.963,90.276C159.717,88.243 160.964,85.668 163.064,84.145L163.127,84.114C163.099,85.724 163.111,87.363 163.163,89.03C162.703,89.84 162.363,90.694 162.089,91.435C161.576,92.819 161.206,93.918 160.948,94.272L160.567,94.67L160.039,94.959L159.376,95.053L158.719,94.889C152.539,91.99 148.037,88.609 144.292,86.367ZM164.941,65.21C165.322,64.926 165.706,64.645 166.092,64.366C165.931,64.86 165.777,65.361 165.63,65.868C165.401,65.654 165.17,65.434 164.941,65.21ZM189.046,166.783C189.996,168.225 190.965,169.666 191.951,171.102C179.424,167.467 148.281,158.203 131.436,150.902C131.138,149.497 130.89,148.169 130.684,146.918C145.342,153.643 174.231,162.434 189.046,166.783ZM200.052,182.386C200.726,183.287 201.402,184.183 202.081,185.074C201.92,185.25 201.757,185.435 201.59,185.624C199.758,187.709 197.59,190.357 195.352,191.533C192.72,192.917 187.101,194.121 183.598,194.049C182.299,194.022 181.246,193.799 180.59,193.457L179.865,192.935L179.446,192.382C178.556,190.778 178.861,189.528 179.479,188.476C179.668,188.154 179.896,187.856 180.121,187.576C179.542,187.168 178.658,186.557 177.776,186.002C171.33,181.942 157.574,174.153 151.827,171.089C150.754,170.517 149.758,170.031 149.564,169.937C148.5,169.705 147.592,169.553 146.838,169.535C146.354,169.524 145.966,169.5 145.723,169.724C145.496,169.932 145.491,170.292 145.489,170.778C145.524,170.884 145.801,171.702 146.127,172.383C146.861,173.917 148.06,175.986 149.449,178.014C152.259,182.115 159.774,189.925 160.098,190.357C161.258,191.902 164.619,193.605 166.089,194.034C169.181,194.937 170.618,197.569 171.134,199.333C171.415,200.294 171.411,201.054 171.36,201.327C171.188,202.246 170.593,203.482 169.691,204.828L165.529,204.828C165.725,204.588 165.914,204.35 166.095,204.114C167.063,202.855 167.84,201.702 168.054,200.847C167.965,200.501 167.218,197.836 165.155,197.234C163.244,196.676 158.939,194.366 157.432,192.358C157.105,191.922 149.534,184.035 146.699,179.897C144.943,177.333 143.475,174.704 142.751,173.01C142.327,172.018 142.153,171.242 142.155,170.824C142.163,169.394 142.526,168.385 143.087,167.679C143.683,166.927 144.528,166.448 145.674,166.274C146.829,166.098 148.405,166.267 150.391,166.706C150.619,166.756 151.727,167.259 153.395,168.148C159.188,171.237 173.055,179.089 179.553,183.182C181.291,184.277 182.529,185.132 183.023,185.581L183.425,186.019L183.648,186.411L183.825,187.119L183.786,187.801L183.57,188.443C183.467,188.657 183.331,188.877 183.166,189.1C182.977,189.356 182.737,189.626 182.517,189.921C182.39,190.093 182.244,190.285 182.279,190.533C182.558,190.591 183.175,190.706 183.667,190.716C186.685,190.778 191.533,189.776 193.801,188.583C195.724,187.572 197.511,185.216 199.086,183.424C199.412,183.053 199.735,182.705 200.052,182.386ZM204.623,188.381C205.308,189.263 205.994,190.139 206.68,191.009C206.157,191.296 205.717,191.571 205.525,191.761C204.706,192.573 198.514,196.464 191.491,201.768C190.201,202.742 188.882,203.765 187.564,204.828L182.364,204.828C184.715,202.802 187.143,200.875 189.482,199.108C196.324,193.94 202.381,190.184 203.179,189.394C203.428,189.146 203.969,188.774 204.623,188.381ZM214.208,200.324C214.93,201.198 215.649,202.062 216.363,202.915C215.509,203.423 214.509,204.071 213.396,204.828L207.605,204.828C209.808,203.237 211.793,201.856 213.421,200.817C213.692,200.643 213.955,200.479 214.208,200.324Z" style="fill:rgb(216,14,130);"/>
                    </g>
                    <g transform="matrix(1.08776,0,0,1.02266,-32.751,-21.8724)">
                        <path d="M240.349,321.585C207.059,360.848 180.165,392.298 180.165,392.298C179.321,393.285 178.128,393.85 176.874,393.857L107.878,394.24C106.122,394.25 104.523,393.168 103.787,391.474C103.05,389.779 103.312,387.782 104.456,386.367C104.456,386.367 161.876,315.323 197.746,271.128C137.779,198.426 140.597,160.424 140.261,151.784C140.253,151.58 140.257,151.378 140.273,151.179C140.262,151.045 140.257,150.91 140.257,150.774C140.257,98.283 184.973,55.378 240.349,55.378C295.726,55.378 340.442,98.283 340.442,150.774C340.442,150.91 340.437,151.045 340.426,151.179C340.442,151.378 340.446,151.58 340.438,151.784C340.102,160.422 342.922,198.426 282.953,271.127C318.811,315.307 376.243,386.367 376.243,386.367C377.387,387.782 377.649,389.779 376.912,391.474C376.176,393.168 374.577,394.25 372.821,394.24L303.825,393.857C302.571,393.85 301.378,393.285 300.534,392.298C300.534,392.298 273.64,360.847 240.349,321.585ZM203.662,263.842C213.854,251.296 221.584,241.815 224.557,238.243C227.08,235.211 230.489,231.194 234.418,226.455C217.823,205.951 195.87,176.366 188.208,152.303C180.968,129.567 178.125,106.524 181.429,89.724C181.807,87.806 182.264,85.964 182.8,84.207C162.33,99.93 149.219,123.874 149.219,150.774C149.219,150.911 149.214,151.047 149.203,151.181C149.208,151.25 149.212,151.32 149.215,151.39C149.534,159.586 147.368,195.221 203.662,263.842ZM240.367,219.195C256.263,199.542 276.787,171.907 284.003,149.245C287.708,137.609 290.241,125.895 291.237,115.13C276.685,105.872 259.176,100.481 240.349,100.481C221.523,100.481 204.014,105.872 189.462,115.13C190.458,125.895 192.991,137.609 196.696,149.245C203.916,171.919 224.525,199.574 240.367,219.195ZM291.705,104.456C291.66,99.893 291.269,95.601 290.497,91.677C288.722,82.651 284.946,75.669 278.189,72.66C278.119,72.629 278.051,72.596 277.983,72.562C266.499,67.646 253.753,64.911 240.349,64.911C226.946,64.911 214.2,67.646 202.716,72.562C202.648,72.596 202.58,72.629 202.51,72.66C195.753,75.669 191.977,82.651 190.202,91.677C189.43,95.601 189.039,99.893 188.994,104.456C204,95.888 221.571,90.948 240.349,90.948C259.128,90.948 276.699,95.888 291.705,104.456ZM297.899,84.207C298.435,85.964 298.892,87.806 299.269,89.724C302.574,106.524 299.731,129.567 292.491,152.303C282.014,185.208 244.681,228.446 231.267,244.562C220.038,258.053 140.911,355.895 117.661,384.653C117.661,384.653 174.858,384.335 174.858,384.335C180.866,377.306 206.594,347.178 236.983,311.321C237.006,311.293 237.03,311.265 237.053,311.238C248.601,297.612 260.82,283.16 272.885,268.837C333.434,196.946 331.157,159.784 331.484,151.39C331.486,151.32 331.491,151.25 331.496,151.181C331.485,151.047 331.48,150.911 331.48,150.774C331.48,123.874 318.369,99.93 297.899,84.207ZM276.94,278.307C266.653,290.514 256.298,302.763 246.383,314.467C275.6,348.929 300.01,377.512 305.84,384.335L363.038,384.653C347.216,365.083 305.517,313.519 276.94,278.307Z" style="fill:rgb(150,158,189);"/>
                    </g>
                    <g transform="matrix(1.08776,0,0,1.02266,-32.751,-21.8724)">
                        <path d="M313.287,308.549C344.369,346.93 376.243,386.367 376.243,386.367C377.387,387.782 377.649,389.779 376.912,391.474C376.176,393.168 374.577,394.25 372.821,394.24L303.825,393.857C302.571,393.85 301.378,393.285 300.534,392.298C300.534,392.298 273.64,360.847 240.349,321.585C207.059,360.848 180.165,392.298 180.165,392.298C179.321,393.285 178.128,393.85 176.874,393.857L107.878,394.24C106.122,394.25 104.523,393.168 103.787,391.474C103.05,389.779 103.312,387.782 104.456,386.367C104.456,386.367 136.327,346.934 167.413,308.549L179.242,308.549C155.072,338.388 129.33,370.22 117.661,384.653C117.661,384.653 174.858,384.335 174.858,384.335C180.866,377.306 206.594,347.178 236.983,311.321C237.006,311.293 237.03,311.265 237.053,311.238C237.81,310.345 238.569,309.449 239.331,308.549L251.394,308.549C249.713,310.535 248.041,312.509 246.383,314.467C275.6,348.929 300.01,377.512 305.84,384.335L363.038,384.653C351.37,370.221 325.63,338.391 301.457,308.549L313.287,308.549ZM162.657,221.557C139.026,180.721 140.51,158.187 140.261,151.784C140.253,151.58 140.257,151.378 140.273,151.179C140.262,151.045 140.257,150.91 140.257,150.774C140.257,98.283 184.973,55.378 240.349,55.378C295.726,55.378 340.442,98.283 340.442,150.774C340.442,150.91 340.437,151.045 340.426,151.179C340.442,151.378 340.446,151.58 340.438,151.784C340.189,158.187 341.674,180.72 318.043,221.557L307.406,221.557C332.463,180.243 331.239,157.696 331.484,151.39C331.486,151.32 331.491,151.25 331.496,151.181C331.485,151.047 331.48,150.911 331.48,150.774C331.48,123.874 318.369,99.93 297.899,84.207C298.435,85.964 298.892,87.806 299.269,89.724C302.574,106.524 299.731,129.567 292.491,152.303C285.417,174.52 266.101,201.447 250.169,221.557L230.492,221.557C214.523,201.421 195.279,174.511 188.208,152.303C180.968,129.567 178.125,106.524 181.429,89.724C181.807,87.806 182.264,85.964 182.8,84.207C162.33,99.93 149.219,123.874 149.219,150.774C149.219,150.911 149.214,151.047 149.203,151.181C149.208,151.25 149.212,151.32 149.215,151.39C149.46,157.696 148.235,180.242 173.292,221.557L162.657,221.557ZM291.705,104.456C291.66,99.893 291.269,95.601 290.497,91.677C288.722,82.651 284.946,75.669 278.189,72.66C278.119,72.629 278.051,72.596 277.983,72.562C266.499,67.646 253.753,64.911 240.349,64.911C226.946,64.911 214.2,67.646 202.716,72.562C202.648,72.596 202.58,72.629 202.51,72.66C195.753,75.669 191.977,82.651 190.202,91.677C189.43,95.601 189.039,99.893 188.994,104.456C204,95.888 221.571,90.948 240.349,90.948C259.128,90.948 276.699,95.888 291.705,104.456ZM240.367,219.195C256.263,199.542 276.787,171.907 284.003,149.245C287.708,137.609 290.241,125.895 291.237,115.13C276.685,105.872 259.176,100.481 240.349,100.481C221.523,100.481 204.014,105.872 189.462,115.13C190.458,125.895 192.991,137.609 196.696,149.245C203.916,171.919 224.525,199.574 240.367,219.195Z" style="fill:rgb(216,14,130);"/>
                    </g>
                    <g transform="matrix(1,0,0,0.899255,3.69166,37.5817)">
                        <path d="M342.995,200.685L342.995,269.937C342.995,278.127 337.016,284.776 329.651,284.776L113.495,284.776C106.13,284.776 100.15,278.127 100.15,269.937L100.15,200.685C100.15,192.495 106.13,185.845 113.495,185.845L329.651,185.845C337.016,185.845 342.995,192.495 342.995,200.685ZM332.995,200.685C332.995,198.632 331.497,196.966 329.651,196.966L113.495,196.966C111.649,196.966 110.15,198.632 110.15,200.685L110.15,269.937C110.15,271.989 111.649,273.656 113.495,273.656L329.651,273.656C331.497,273.656 332.995,271.989 332.995,269.937L332.995,200.685Z" style="fill:rgb(216,14,130);"/>
                    </g>
                </g>
                <g transform="matrix(1,0,0,1,658.333,1.98952e-13)">
                    <g transform="matrix(1.30994,0,0,1.30994,-132.949,-78.475)">
                        <circle cx="273.255" cy="231.67" r="171.763" style="fill:rgb(35,31,32);"/>
                        <path d="M273.255,59.907C368.054,59.907 445.018,136.872 445.018,231.67C445.018,326.469 368.054,403.434 273.255,403.434C178.456,403.434 101.492,326.469 101.492,231.67C101.492,136.872 178.456,59.907 273.255,59.907ZM273.255,61.434C179.299,61.434 103.019,137.714 103.019,231.67C103.019,325.627 179.299,401.907 273.255,401.907C367.211,401.907 443.492,325.627 443.492,231.67C443.492,137.714 367.211,61.434 273.255,61.434Z" style="fill:rgb(35,31,32);"/>
                    </g>
                    <g id="Ribbon" transform="matrix(1,0,0,1,-3.69166,-9.01541)">
                        <path d="M286.93,89.078C270.2,79.281 250.188,73.574 228.692,73.574C207.195,73.574 187.183,79.281 170.453,89.078C170.235,82.679 170.643,76.706 171.757,71.382C173.874,61.268 178.536,53.558 186.59,50.186C186.64,50.165 186.689,50.143 186.736,50.119C199.533,44.95 213.742,42.072 228.692,42.072C243.642,42.072 257.85,44.95 270.647,50.119C270.694,50.143 270.743,50.165 270.793,50.186C278.847,53.558 283.51,61.268 285.626,71.382C286.74,76.706 287.148,82.679 286.93,89.078Z" style="fill:white;stroke:white;stroke-width:2px;"/>
                        <path d="M268.528,259.051C302.01,297.83 353.683,357.914 367.481,373.961C367.481,373.961 298.847,373.603 298.847,373.603C294.045,368.321 265.815,337.255 231.973,299.72C243.793,286.605 256.224,272.781 268.528,259.051Z" style="fill:white;stroke:white;stroke-width:2px;"/>
                        <path d="M285.812,57.703C312.619,73.939 330.257,101.284 330.257,132.317C330.257,132.459 330.269,132.598 330.292,132.734C330.275,132.836 330.263,132.942 330.259,133.049C329.9,141.736 332.554,180.277 265.897,254.682C252.767,269.339 239.467,284.126 226.899,298.069C226.886,298.083 226.873,298.097 226.86,298.111C192.377,336.364 163.406,368.246 158.536,373.603L89.902,373.961C109.359,351.333 204.124,241.145 216.987,226.616C231.457,210.271 271.799,166.471 283.101,133.099C290.819,110.311 293.92,87.223 290.397,70.384C289.403,65.632 287.883,61.366 285.812,57.703Z" style="fill:white;stroke:white;stroke-width:2px;"/>
                        <path d="M188.799,251.659C124.9,179.232 127.479,141.617 127.124,133.049C127.12,132.942 127.109,132.836 127.091,132.734C127.114,132.598 127.126,132.459 127.126,132.317C127.126,101.284 144.764,73.939 171.571,57.703C169.5,61.366 167.981,65.632 166.986,70.384C163.463,87.223 166.564,110.311 174.282,133.099C182.746,158.088 207.452,188.923 225.466,209.722C220.605,215.267 216.385,219.943 213.338,223.384C209.93,227.233 200.777,237.793 188.799,251.659Z" style="fill:white;stroke:white;stroke-width:2px;"/>
                        <g>
                            <path d="M320.434,313.019C320.434,313.019 307.56,311.93 299.933,313.32C292.306,314.71 254.862,319.252 249.467,319.098C244.071,318.944 269.21,344.17 269.21,344.17C269.21,344.17 280.188,341.644 293.9,350C307.612,358.356 315.196,369.267 318.148,373.056C321.1,376.845 319.909,376.39 319.909,376.39L328.46,377.252L360.416,377.87C360.416,377.87 352.607,359.595 343.567,353.16C331.49,344.564 323.652,344.178 313.434,342.03C309.147,341.128 305.302,336.009 307.524,334.974C311.958,332.909 319.775,331.483 323.558,332.893C330.369,335.433 345.898,342.801 345.898,342.801L320.434,313.019Z" style="stroke:rgb(147,149,152);stroke-width:3.33px;stroke-linecap:round;stroke-miterlimit:1.5;"/>
                            <g transform="matrix(1.04068,0,0,1,-12.7398,0)">
                                <path d="M234.315,299.527C234.315,299.527 238.085,304.141 239.699,305.342C241.313,306.543 242.661,301.334 265.049,299.336C277.956,298.184 306.694,302.965 312.003,304.86C317.312,306.754 303.096,293.931 303.096,293.931C303.096,293.931 257.97,285.99 242.639,292.252C234.391,295.621 234.315,299.527 234.315,299.527Z" style="stroke:rgb(147,149,152);stroke-width:3.27px;stroke-linecap:round;stroke-miterlimit:1.5;"/>
                            </g>
                            <g transform="matrix(0.971741,-0.236048,0.236048,0.971741,-7.38218,46.2452)">
                                <path d="M162.186,54.198C163.455,57.028 166.359,61.545 167.667,62.379C168.974,63.212 176.331,51.383 176.331,51.383C176.331,51.383 160.917,51.368 162.186,54.198Z" style="stroke:rgb(147,149,152);stroke-width:3.33px;stroke-linecap:round;stroke-miterlimit:1.5;"/>
                            </g>
                            <path d="M162.112,322.708C159.062,324.048 154.195,327.411 151.022,328.724C138.74,333.808 126.971,339.144 125.025,340.791C117.499,347.162 106.003,351.462 104.494,352.678C100.621,355.801 93.402,367.377 93.402,367.377C93.402,367.377 99.881,366.649 102.734,365.605C104.594,364.924 105.212,363.11 106.49,361.366C108.558,358.542 128.564,351.559 137.633,347.788C142.815,345.633 158.78,342.088 172.714,338.193C183.164,335.273 194.975,332.525 197.642,330.581C203.867,326.046 224.348,303.309 224.348,303.309L231.107,299.725C231.107,299.725 219.806,298.953 215.493,299.924C210.12,301.135 174.274,317.365 162.112,322.708Z" style="stroke:rgb(147,149,152);stroke-width:3.33px;stroke-linecap:round;stroke-miterlimit:1.5;"/>
                            <g transform="matrix(1,0,0,1,6.826,7.92176)">
                                <path d="M258.716,250.476C258.716,250.476 215.468,253.9 202.734,257.755C190.001,261.61 185.827,266.922 170.234,271.752C154.641,276.581 151.691,281.049 151.691,281.049L134.643,304.176C134.643,304.176 151.974,293.717 161.221,289.141C170.468,284.565 183.21,278.659 196.301,277.05C209.392,275.44 233.558,274.972 238.157,272.996C242.755,271.021 258.716,250.476 258.716,250.476Z" style="stroke:rgb(147,149,152);stroke-width:3.33px;stroke-linecap:round;stroke-miterlimit:1.5;"/>
                            </g>
                            <g transform="matrix(1,0,0,1,7.57819,-2.13228)">
                                <path d="M270.526,55C270.526,55 228.784,73.763 224.938,77.073C219.507,81.746 205.745,80.22 193.72,81.672C180.422,83.278 168.526,88.69 168.133,89.173C167.804,89.578 172.102,84.226 178.731,77.383C182.06,73.946 186.78,70.331 189.698,66.486C193.545,61.417 202.312,55.455 201.744,55.105C200.15,54.122 186.023,57.633 183.222,60.45C180.481,63.207 177.621,65.341 173.897,68.13C172.66,69.056 171.149,69.983 168.434,70.199C165.474,70.434 164.751,73.505 164.014,71.799C162.507,68.314 168.799,58.263 178.568,50.844C188.338,43.425 205.539,43.298 214.528,43.318C223.517,43.338 255.315,42.51 270.526,55Z" style="stroke:rgb(147,149,152);stroke-width:3.33px;stroke-linecap:round;stroke-miterlimit:1.5;"/>
                            </g>
                            <path d="M286.415,67.298C286.415,67.298 288.727,84.314 290.937,89.167C292.149,91.828 322.119,102.208 325.297,102.948C328.476,103.688 308.721,74.342 305.305,72.518C300.842,70.133 292.883,69.509 286.415,67.298Z" style="stroke:rgb(147,149,152);stroke-width:3.33px;stroke-linecap:round;stroke-miterlimit:1.5;"/>
                            <g transform="matrix(1,0,0,1,-3.45238,0)">
                                <path d="M330.718,108.686C330.718,108.686 309.532,102.468 292.693,102.978C290.569,103.042 288.295,121.609 289.776,121.077C300.795,117.121 328.471,123.468 333.745,126.369C336.548,127.911 330.718,108.686 330.718,108.686Z" style="stroke:rgb(147,149,152);stroke-width:3.33px;stroke-linecap:round;stroke-miterlimit:1.5;"/>
                            </g>
                            <g transform="matrix(1,0,0,1,-4.79274,-0.180858)">
                                <path d="M288.636,130.189C288.636,130.189 281.021,143.755 283.209,144.901C291.967,149.489 310.473,151.58 333.517,149.945C338.841,149.567 337.114,135.912 337.114,135.912C336.229,135.784 309.574,126.5 288.636,130.189Z" style="stroke:rgb(147,149,152);stroke-width:3.33px;stroke-linecap:round;stroke-miterlimit:1.5;"/>
                            </g>
                            <g transform="matrix(1,0,0,1,2.24622,-0.0494465)">
                                <path d="M131.415,94.362C132.53,97.244 144.627,110.312 156.996,115.73C163.251,118.471 176.11,137.438 175.51,138.334C175.175,138.836 141.815,124.474 127.344,112.528C126.076,111.482 123.279,123.055 125.9,126.488C128.363,129.713 139.831,138.582 148.522,142.803C163.602,150.126 180.988,155.013 186.865,156.565C187.57,156.752 195.169,171.308 195.586,171.112C195.627,171.093 146.081,157.249 126.51,147.906C123.869,146.645 126.315,162.28 129.522,168.564C131.728,172.888 143.234,206.993 155.552,213.375C157.187,214.223 166.783,204.772 167.475,201.07C167.58,200.511 166.826,196.691 163.376,195.684C161.685,195.19 157.852,193.184 156.519,191.407C156.193,190.973 148.65,183.125 145.828,179.005C143.422,175.492 141.57,171.859 141.576,170.883C141.594,167.695 143.664,167.472 147.786,168.383C149.016,168.655 179.269,185.689 179.866,187.107C180.357,188.274 177.374,189.31 178.657,191.623C179.649,193.411 188.831,191.948 192.33,190.108C195.798,188.284 198.98,182.551 201.079,182.033C202.138,181.772 203.03,182.757 204.328,184.617C205.34,186.067 206.124,187.001 206.306,187.833C206.4,188.264 205.696,188.577 205.271,188.774C204.046,189.341 202.544,190.192 202.106,190.627C200.489,192.229 177.608,205.921 169.53,218.819C167.064,222.756 172.272,229.061 173.164,229.645C175.382,231.099 212.24,200.015 216.237,200.233C217.449,200.299 207.995,188.089 207.944,187.971C206.172,183.83 187.914,158.032 187.909,158.016C187.243,155.875 174.218,133.947 168.303,117.027C164.015,104.762 163.744,90.951 164.094,86.762C164.184,85.685 162.401,85.105 161.796,85.544C158.415,87.995 157.743,93.693 157.181,93.429C148.552,89.382 143.157,84.424 138.55,82.851C136.184,82.043 130.038,90.805 131.415,94.362Z" style="stroke:rgb(147,149,152);stroke-width:3.33px;stroke-linecap:round;stroke-miterlimit:1.5;"/>
                            </g>
                            <path d="M187.198,234.637C187.198,234.637 197.649,225.881 228.554,208.768L226.618,211.676C226.618,211.676 236.675,202.718 238.989,199.725C241.303,196.732 266.702,196.84 276.979,193.51C287.257,190.18 304.867,187.774 314.467,186.947C324.067,186.12 305.642,210.046 305.642,210.046C305.642,210.046 254.676,220.644 231.725,234.114C214.848,244.019 187.198,234.637 187.198,234.637Z" style="stroke:rgb(147,149,152);stroke-width:3.33px;stroke-linecap:round;stroke-miterlimit:1.5;"/>
                            <path d="M263.792,162.667C263.792,162.667 248.989,185.084 247.536,188.881C246.696,191.075 271.045,182.73 286.334,181.349C302.701,179.871 318.536,182.619 318.536,182.619C318.536,182.619 329.162,170.053 324.918,167.992C313.551,162.474 289.182,158.08 263.792,162.667Z" style="stroke:rgb(147,149,152);stroke-width:3.33px;stroke-linecap:round;stroke-miterlimit:1.5;"/>
                        </g>
                    </g>
                    <g transform="matrix(1,0,0,1,-3.69166,-8.89193)">
                        <g transform="matrix(1.08776,0,0,1.02266,-32.751,-21.8724)">
                            <path d="M144.738,150.774C144.738,100.754 187.58,60.145 240.349,60.145C293.119,60.145 335.961,100.754 335.961,150.774" style="fill:none;stroke:url(#_Linear2);stroke-width:9.23px;stroke-linecap:round;stroke-miterlimit:1.5;"/>
                        </g>
                        <g transform="matrix(1.08776,0,0,1.02266,-32.751,14.5037)">
                            <path d="M185.395,76.621C200.946,66.242 219.903,60.145 240.349,60.145C260.913,60.145 279.97,66.312 295.571,76.799" style="fill:none;stroke:url(#_Linear3);stroke-width:9.23px;stroke-linecap:round;stroke-miterlimit:1.5;"/>
                        </g>
                        <path d="M124.689,133.149C125.05,141.876 122.262,180.447 188.201,254.661" style="fill:none;stroke:url(#_Linear4);stroke-width:9.75px;stroke-linecap:round;stroke-miterlimit:1.5;"/>
                        <path d="M228.692,299.72C266.546,341.713 297.764,376.034 297.764,376.034L372.815,376.426C372.815,376.426 307.533,300.489 268.774,255.607" style="fill:none;stroke:url(#_Linear5);stroke-width:9.75px;stroke-linecap:round;stroke-miterlimit:1.5;"/>
                        <path d="M228.413,209.398C210.5,188.809 185.142,157.567 176.591,132.317C163.988,95.108 163.753,57.104 185.649,47.938" style="fill:none;stroke:url(#_Linear6);stroke-width:9.75px;stroke-linecap:round;stroke-miterlimit:1.5;"/>
                        <g transform="matrix(-1,0,0,1,457.383,0)">
                            <path d="M124.689,133.149C125.053,141.94 122.22,181.017 189.671,256.308C242.36,315.122 297.764,376.034 297.764,376.034L372.815,376.426C372.815,376.426 256.57,241.207 242.221,225C227.872,208.793 187.798,165.409 176.591,132.317C163.988,95.108 163.753,57.104 185.649,47.938" style="fill:none;stroke:rgb(156,158,158);stroke-width:9.75px;stroke-linecap:round;stroke-miterlimit:1.5;"/>
                        </g>
                        <g transform="matrix(1.43564,0,0,1.38712,-60.2902,-111.994)">
                            <path d="M201.291,87.149C287.79,87.149 358.015,159.832 358.015,249.356C358.015,338.881 287.79,411.563 201.291,411.563C114.793,411.563 44.567,338.881 44.567,249.356C44.567,159.832 114.793,87.149 201.291,87.149ZM201.291,94.358C118.637,94.358 51.532,163.811 51.532,249.356C51.532,334.902 118.637,404.354 201.291,404.354C283.945,404.354 351.05,334.902 351.05,249.356C351.05,163.811 283.945,94.358 201.291,94.358Z" style="fill:url(#_Linear7);"/>
                        </g>
                    </g>
                    <g id="ceil-blue-rbg" serif:id="ceil blue rbg" transform="matrix(1,0,0,0.899255,-2.84217e-14,28.6897)">
                        <path d="M342.995,194.749L342.995,275.872C342.995,280.787 339.408,284.776 334.989,284.776L108.157,284.776C103.738,284.776 100.15,280.787 100.15,275.872L100.15,194.749C100.15,189.835 103.738,185.845 108.157,185.845L334.989,185.845C339.408,185.845 342.995,189.835 342.995,194.749Z" style="fill:rgb(150,158,189);"/>
                        <clipPath id="_clip8">
                            <path d="M342.995,194.749L342.995,275.872C342.995,280.787 339.408,284.776 334.989,284.776L108.157,284.776C103.738,284.776 100.15,280.787 100.15,275.872L100.15,194.749C100.15,189.835 103.738,185.845 108.157,185.845L334.989,185.845C339.408,185.845 342.995,189.835 342.995,194.749Z"/>
                        </clipPath>
                        <g clip-path="url(#_clip8)">
                            <g transform="matrix(1.58189,0,0,1.75911,33.3507,-162.039)">
                                <g transform="matrix(50,0,0,50,182.052,243.581)">
                                </g>
                                <text x="59.802px" y="243.581px" style="font-family:'Avenir-Heavy', 'Avenir', sans-serif;font-weight:900;font-size:50px;fill:rgb(35,31,32);stroke:rgb(156,158,158);stroke-width:2.11px;">RDIG</text>
                            </g>
                        </g>
                        <path d="M342.995,194.749L342.995,275.872C342.995,280.787 339.408,284.776 334.989,284.776L108.157,284.776C103.738,284.776 100.15,280.787 100.15,275.872L100.15,194.749C100.15,189.835 103.738,185.845 108.157,185.845L334.989,185.845C339.408,185.845 342.995,189.835 342.995,194.749ZM110.15,196.966L110.15,273.656L332.995,273.656L332.995,196.966L110.15,196.966Z" style="fill:rgb(209,206,203);"/>
                    </g>
                </g>
            </g>
        </g>
    </g>
    <defs>
        <linearGradient id="_Linear2" x1="0" y1="0" x2="1" y2="0" gradientUnits="userSpaceOnUse" gradientTransform="matrix(342.298,377.23,-354.653,364.089,33.5025,62.7249)"><stop offset="0" style="stop-color:rgb(226,224,223);stop-opacity:1"/><stop offset="0.27" style="stop-color:rgb(154,157,157);stop-opacity:1"/><stop offset="0.31" style="stop-color:white;stop-opacity:1"/><stop offset="0.36" style="stop-color:rgb(154,158,158);stop-opacity:1"/><stop offset="0.77" style="stop-color:rgb(156,158,158);stop-opacity:1"/><stop offset="0.81" style="stop-color:white;stop-opacity:1"/><stop offset="0.86" style="stop-color:rgb(156,158,158);stop-opacity:1"/><stop offset="1" style="stop-color:rgb(226,224,223);stop-opacity:1"/></linearGradient>
        <linearGradient id="_Linear3" x1="0" y1="0" x2="1" y2="0" gradientUnits="userSpaceOnUse" gradientTransform="matrix(342.298,377.23,-354.653,364.089,33.5025,27.1547)"><stop offset="0" style="stop-color:rgb(226,224,223);stop-opacity:1"/><stop offset="0.27" style="stop-color:rgb(154,157,157);stop-opacity:1"/><stop offset="0.31" style="stop-color:white;stop-opacity:1"/><stop offset="0.36" style="stop-color:rgb(154,158,158);stop-opacity:1"/><stop offset="0.77" style="stop-color:rgb(156,158,158);stop-opacity:1"/><stop offset="0.81" style="stop-color:white;stop-opacity:1"/><stop offset="0.86" style="stop-color:rgb(156,158,158);stop-opacity:1"/><stop offset="1" style="stop-color:rgb(226,224,223);stop-opacity:1"/></linearGradient>
        <linearGradient id="_Linear4" x1="0" y1="0" x2="1" y2="0" gradientUnits="userSpaceOnUse" gradientTransform="matrix(372.338,385.777,-385.777,372.338,3.69166,42.2737)"><stop offset="0" style="stop-color:rgb(226,224,223);stop-opacity:1"/><stop offset="0.27" style="stop-color:rgb(154,157,157);stop-opacity:1"/><stop offset="0.31" style="stop-color:white;stop-opacity:1"/><stop offset="0.36" style="stop-color:rgb(154,158,158);stop-opacity:1"/><stop offset="0.77" style="stop-color:rgb(156,158,158);stop-opacity:1"/><stop offset="0.81" style="stop-color:white;stop-opacity:1"/><stop offset="0.86" style="stop-color:rgb(156,158,158);stop-opacity:1"/><stop offset="1" style="stop-color:rgb(226,224,223);stop-opacity:1"/></linearGradient>
        <linearGradient id="_Linear5" x1="0" y1="0" x2="1" y2="0" gradientUnits="userSpaceOnUse" gradientTransform="matrix(372.338,385.777,-385.777,372.338,3.69166,42.2737)"><stop offset="0" style="stop-color:rgb(226,224,223);stop-opacity:1"/><stop offset="0.27" style="stop-color:rgb(154,157,157);stop-opacity:1"/><stop offset="0.31" style="stop-color:white;stop-opacity:1"/><stop offset="0.36" style="stop-color:rgb(154,158,158);stop-opacity:1"/><stop offset="0.77" style="stop-color:rgb(156,158,158);stop-opacity:1"/><stop offset="0.81" style="stop-color:white;stop-opacity:1"/><stop offset="0.86" style="stop-color:rgb(156,158,158);stop-opacity:1"/><stop offset="1" style="stop-color:rgb(226,224,223);stop-opacity:1"/></linearGradient>
        <linearGradient id="_Linear6" x1="0" y1="0" x2="1" y2="0" gradientUnits="userSpaceOnUse" gradientTransform="matrix(372.338,385.777,-385.777,372.338,3.69166,42.2737)"><stop offset="0" style="stop-color:rgb(226,224,223);stop-opacity:1"/><stop offset="0.27" style="stop-color:rgb(154,157,157);stop-opacity:1"/><stop offset="0.31" style="stop-color:white;stop-opacity:1"/><stop offset="0.36" style="stop-color:rgb(154,158,158);stop-opacity:1"/><stop offset="0.77" style="stop-color:rgb(156,158,158);stop-opacity:1"/><stop offset="0.81" style="stop-color:white;stop-opacity:1"/><stop offset="0.86" style="stop-color:rgb(156,158,158);stop-opacity:1"/><stop offset="1" style="stop-color:rgb(226,224,223);stop-opacity:1"/></linearGradient>
        <linearGradient id="_Linear7" x1="0" y1="0" x2="1" y2="0" gradientUnits="userSpaceOnUse" gradientTransform="matrix(259.353,278.115,-268.714,268.426,44.5667,111.215)"><stop offset="0" style="stop-color:rgb(226,224,223);stop-opacity:1"/><stop offset="0.27" style="stop-color:rgb(154,157,157);stop-opacity:1"/><stop offset="0.31" style="stop-color:white;stop-opacity:1"/><stop offset="0.36" style="stop-color:rgb(154,158,158);stop-opacity:1"/><stop offset="0.77" style="stop-color:rgb(156,158,158);stop-opacity:1"/><stop offset="0.81" style="stop-color:white;stop-opacity:1"/><stop offset="0.86" style="stop-color:rgb(156,158,158);stop-opacity:1"/><stop offset="1" style="stop-color:rgb(226,224,223);stop-opacity:1"/></linearGradient>
    </defs>
</svg>
