<svg aria-hidden="true" style="position: absolute; width: 0; height: 0; overflow: hidden;" version="1.1" xmlns="http://www.w3.org/2000/svg" xmlns:xlink="http://www.w3.org/1999/xlink">
    <defs>
        <symbol id="icon-arrow-left" viewBox="0 0 32 32">
            <path stroke-width="2.6667" stroke-miterlimit="4" stroke-linecap="round" stroke-linejoin="round" d="M25.333 16h-18.667"></path>
            <path stroke-width="2.6667" stroke-miterlimit="4" stroke-linecap="round" stroke-linejoin="round" d="M16 25.333l-9.333-9.333 9.333-9.333"></path>
        </symbol>
        <symbol id="icon-file-text" viewBox="0 0 32 32">
            <path stroke-width="2.6667" stroke-miterlimit="4" stroke-linecap="round" stroke-linejoin="round" d="M18.667 2.667h-10.667c-1.473 0-2.667 1.194-2.667 2.667v0 21.333c0 1.473 1.194 2.667 2.667 2.667v0h16c1.473 0 2.667-1.194 2.667-2.667v0-16z"></path>
            <path stroke-width="2.6667" stroke-miterlimit="4" stroke-linecap="round" stroke-linejoin="round" d="M18.667 2.667v8h8"></path>
            <path stroke-width="2.6667" stroke-miterlimit="4" stroke-linecap="round" stroke-linejoin="round" d="M21.333 17.333h-10.667"></path>
            <path stroke-width="2.6667" stroke-miterlimit="4" stroke-linecap="round" stroke-linejoin="round" d="M21.333 22.667h-10.667"></path>
            <path stroke-width="2.6667" stroke-miterlimit="4" stroke-linecap="round" stroke-linejoin="round" d="M13.333 12h-2.667"></path>
        </symbol>
        <symbol id="icon-github" viewBox="0 0 32 32">
            <path stroke-width="2.6667" stroke-miterlimit="4" stroke-linecap="round" stroke-linejoin="round" d="M12 25.333c-6.667 2-6.667-3.333-9.333-4M21.333 29.333v-5.16c0.009-0.105 0.014-0.228 0.014-0.352 0-1.216-0.483-2.32-1.268-3.129l0.001 0.001c4.187-0.467 8.587-2.053 8.587-9.333-0-1.94-0.762-3.702-2.003-5.003l0.003 0.003c0.27-0.702 0.427-1.515 0.427-2.364 0-0.962-0.201-1.878-0.564-2.707l0.017 0.044s-1.573-0.467-5.213 1.973c-1.399-0.394-3.007-0.621-4.667-0.621s-3.267 0.227-4.792 0.651l0.125-0.030c-3.64-2.44-5.213-1.973-5.213-1.973-0.346 0.785-0.547 1.701-0.547 2.663 0 0.849 0.157 1.661 0.442 2.41l-0.016-0.046c-1.238 1.299-2 3.061-2 5.001 0 0.014 0 0.027 0 0.041v-0.002c0 7.227 4.4 8.813 8.587 9.333-0.782 0.808-1.264 1.91-1.264 3.125 0 0.111 0.004 0.221 0.012 0.33l-0.001-0.015v5.16"></path>
        </symbol>
        <symbol id="icon-linkedin" viewBox="0 0 32 32">
            <path stroke-width="2.6667" stroke-miterlimit="4" stroke-linecap="round" stroke-linejoin="round" d="M21.333 10.667c4.418 0 8 3.582 8 8v0 9.333h-5.333v-9.333c0-1.473-1.194-2.667-2.667-2.667v0c-1.473 0-2.667 1.194-2.667 2.667v0 9.333h-5.333v-9.333c0-4.418 3.582-8 8-8v0z"></path>
            <path stroke-width="2.6667" stroke-miterlimit="4" stroke-linecap="round" stroke-linejoin="round" d="M2.667 12h5.333v16h-5.333v-16z"></path>
            <path stroke-width="2.6667" stroke-miterlimit="4" stroke-linecap="round" stroke-linejoin="round" d="M8 5.333c0 1.473-1.194 2.667-2.667 2.667s-2.667-1.194-2.667-2.667c0-1.473 1.194-2.667 2.667-2.667s2.667 1.194 2.667 2.667z"></path>
        </symbol>
        <symbol id="icon-sun" viewBox="0 0 32 32">
            <path stroke-width="2.6667" stroke-miterlimit="4" stroke-linecap="round" stroke-linejoin="round" d="M22.667 16c0 3.682-2.985 6.667-6.667 6.667s-6.667-2.985-6.667-6.667c0-3.682 2.985-6.667 6.667-6.667s6.667 2.985 6.667 6.667z"></path>
            <path stroke-width="2.6667" stroke-miterlimit="4" stroke-linecap="round" stroke-linejoin="round" d="M16 1.333v2.667"></path>
            <path stroke-width="2.6667" stroke-miterlimit="4" stroke-linecap="round" stroke-linejoin="round" d="M16 28v2.667"></path>
            <path stroke-width="2.6667" stroke-miterlimit="4" stroke-linecap="round" stroke-linejoin="round" d="M5.627 5.627l1.893 1.893"></path>
            <path stroke-width="2.6667" stroke-miterlimit="4" stroke-linecap="round" stroke-linejoin="round" d="M24.48 24.48l1.893 1.893"></path>
            <path stroke-width="2.6667" stroke-miterlimit="4" stroke-linecap="round" stroke-linejoin="round" d="M1.333 16h2.667"></path>
            <path stroke-width="2.6667" stroke-miterlimit="4" stroke-linecap="round" stroke-linejoin="round" d="M28 16h2.667"></path>
            <path stroke-width="2.6667" stroke-miterlimit="4" stroke-linecap="round" stroke-linejoin="round" d="M5.627 26.373l1.893-1.893"></path>
            <path stroke-width="2.6667" stroke-miterlimit="4" stroke-linecap="round" stroke-linejoin="round" d="M24.48 7.52l1.893-1.893"></path>
        </symbol>
        <symbol id="icon-x-circle" viewBox="0 0 32 32">
            <path stroke-width="2.6667" stroke-miterlimit="4" stroke-linecap="round" stroke-linejoin="round" d="M29.333 16c0 7.364-5.97 13.333-13.333 13.333s-13.333-5.97-13.333-13.333c0-7.364 5.97-13.333 13.333-13.333s13.333 5.97 13.333 13.333z"></path>
            <path stroke-width="2.6667" stroke-miterlimit="4" stroke-linecap="round" stroke-linejoin="round" d="M20 12l-8 8"></path>
            <path stroke-width="2.6667" stroke-miterlimit="4" stroke-linecap="round" stroke-linejoin="round" d="M12 12l8 8"></path>
        </symbol>
    </defs>
</svg>
