<?xml version="1.0" encoding="UTF-8" standalone="no"?>
<svg shape-rendering="" width="100%" height="100%" viewBox="0 0 2059 561" version="1.1" xmlns="http://www.w3.org/2000/svg" xmlns:xlink="http://www.w3.org/1999/xlink" xml:space="preserve" xmlns:serif="http://www.serif.com/" style="fill:#E07A5F;">
    <clipPath id="_clip1">
        <rect x="0" y="0" width="2060" height="562"/>
    </clipPath>
    <g clip-path="url(#_clip1)">
        <path style="fill:#E07A5F;" d="M1029.98,267.659c-49.606,22.475 -98.619,42.958 -150.101,44.985c-115.158,4.534 -233.473,-87.055 -348.267,-79.17c-114.794,7.885 -251.896,117.603 -340.499,126.48c-75.789,7.593 -191.117,-73.217 -191.117,-73.217l0,-286.737l2059.97,-0l0,286.735c0,0 -90.719,-66.33 -155.999,-66.911c-71.961,-0.641 -172.04,62.325 -275.765,63.065c-113.568,0.81 -280.922,-81.575 -405.642,-76.616c-68.962,2.742 -131.223,33.588 -192.577,61.386Z" />
    </g>
</svg>